<?xml version="1.0" encoding="UTF-8"?><svg id="a" xmlns="http://www.w3.org/2000/svg" viewBox="0 0 650 644.281"><path d="M462.631,203.358c0-3.225,2.623-5.848,5.848-5.848s5.848,2.624,5.848,5.848-2.623,5.848-5.848,5.848-5.848-2.623-5.848-5.848ZM468.479,238.401c3.5,0,6.348-2.848,6.348-6.348s-2.848-6.348-6.348-6.348-6.348,2.848-6.348,6.348,2.848,6.348,6.348,6.348ZM468.479,180.01c2.948,0,5.348-2.399,5.348-5.348s-2.399-5.348-5.348-5.348-5.348,2.399-5.348,5.348,2.399,5.348,5.348,5.348ZM468.479,150.814c2.673,0,4.848-2.175,4.848-4.848s-2.175-4.848-4.848-4.848-4.848,2.175-4.848,4.848,2.175,4.848,4.848,4.848ZM468.479,325.988c4.327,0,7.848-3.521,7.848-7.848s-3.521-7.848-7.848-7.848-7.848,3.521-7.848,7.848,3.521,7.848,7.848,7.848ZM468.479,296.792c4.052,0,7.348-3.296,7.348-7.348s-3.296-7.348-7.348-7.348-7.348,3.296-7.348,7.348,3.296,7.348,7.348,7.348ZM468.479,267.597c3.775,0,6.848-3.072,6.848-6.848s-3.072-6.848-6.848-6.848-6.848,3.072-6.848,6.848,3.072,6.848,6.848,6.848ZM497.174,618.445c7.36,0,13.348-5.987,13.348-13.348s-5.987-13.348-13.348-13.348-13.348,5.987-13.348,13.348,5.987,13.348,13.348,13.348ZM497.174,588.75c6.809,0,12.348-5.54,12.348-12.349s-5.539-12.348-12.348-12.348-12.348,5.539-12.348,12.348,5.539,12.349,12.348,12.349ZM468.479,355.184c4.603,0,8.348-3.745,8.348-8.348s-3.745-8.349-8.348-8.349-8.348,3.745-8.348,8.349,3.745,8.348,8.348,8.348ZM497.174,559.553c6.533,0,11.848-5.314,11.848-11.848s-5.314-11.848-11.848-11.848-11.848,5.314-11.848,11.848,5.314,11.848,11.848,11.848ZM468.479,34.032c1.57,0,2.848-1.277,2.848-2.848s-1.277-2.848-2.848-2.848-2.848,1.278-2.848,2.848,1.277,2.848,2.848,2.848ZM497.174,530.358c6.257,0,11.348-5.091,11.348-11.348s-5.091-11.349-11.348-11.349-11.348,5.091-11.348,11.349,5.091,11.348,11.348,11.348ZM468.479,121.619c2.397,0,4.348-1.95,4.348-4.348s-1.95-4.348-4.348-4.348-4.348,1.951-4.348,4.348,1.95,4.348,4.348,4.348ZM468.479,4.836c1.295,0,2.348-1.053,2.348-2.348s-1.053-2.348-2.348-2.348-2.348,1.053-2.348,2.348,1.053,2.348,2.348,2.348ZM468.479,63.228c1.846,0,3.348-1.502,3.348-3.348s-1.502-3.348-3.348-3.348-3.348,1.502-3.348,3.348,1.502,3.348,3.348,3.348ZM468.479,92.423c2.122,0,3.848-1.726,3.848-3.848s-1.726-3.848-3.848-3.848-3.848,1.726-3.848,3.848,1.726,3.848,3.848,3.848ZM439.782,4.836c1.295,0,2.349-1.053,2.349-2.348s-1.054-2.348-2.349-2.348-2.348,1.053-2.348,2.348,1.053,2.348,2.348,2.348ZM468.479,618.445c7.36,0,13.348-5.987,13.348-13.348s-5.987-13.348-13.348-13.348-13.348,5.987-13.348,13.348,5.987,13.348,13.348,13.348ZM439.782,209.206c3.225,0,5.849-2.623,5.849-5.848s-2.624-5.848-5.849-5.848-5.848,2.624-5.848,5.848,2.623,5.848,5.848,5.848ZM439.782,34.032c1.57,0,2.849-1.277,2.849-2.848s-1.278-2.848-2.849-2.848-2.848,1.278-2.848,2.848,1.277,2.848,2.848,2.848ZM439.782,63.228c1.847,0,3.349-1.502,3.349-3.348s-1.502-3.348-3.349-3.348-3.348,1.502-3.348,3.348,1.502,3.348,3.348,3.348ZM468.479,384.379c4.879,0,8.848-3.969,8.848-8.848s-3.969-8.848-8.848-8.848-8.848,3.969-8.848,8.848,3.969,8.848,8.848,8.848ZM439.782,121.619c2.397,0,4.349-1.95,4.349-4.348s-1.951-4.348-4.349-4.348-4.348,1.951-4.348,4.348,1.95,4.348,4.348,4.348ZM439.782,150.814c2.674,0,4.849-2.175,4.849-4.848s-2.175-4.848-4.849-4.848-4.848,2.175-4.848,4.848,2.175,4.848,4.848,4.848ZM439.782,180.01c2.949,0,5.349-2.399,5.349-5.348s-2.399-5.348-5.349-5.348-5.348,2.399-5.348,5.348,2.399,5.348,5.348,5.348ZM468.479,588.75c6.809,0,12.348-5.54,12.348-12.349s-5.539-12.348-12.348-12.348-12.348,5.539-12.348,12.348,5.539,12.349,12.348,12.349ZM468.479,442.771c5.43,0,9.848-4.418,9.848-9.848s-4.418-9.849-9.848-9.849-9.848,4.418-9.848,9.849,4.418,9.848,9.848,9.848ZM468.479,413.575c5.154,0,9.348-4.193,9.348-9.348s-4.193-9.348-9.348-9.348-9.348,4.193-9.348,9.348,4.193,9.348,9.348,9.348ZM468.479,471.966c5.706,0,10.348-4.642,10.348-10.348s-4.642-10.348-10.348-10.348-10.348,4.642-10.348,10.348,4.642,10.348,10.348,10.348ZM468.479,559.553c6.533,0,11.848-5.314,11.848-11.848s-5.314-11.848-11.848-11.848-11.848,5.314-11.848,11.848,5.314,11.848,11.848,11.848ZM468.479,501.162c5.981,0,10.848-4.866,10.848-10.848s-4.866-10.848-10.848-10.848-10.848,4.866-10.848,10.848,4.866,10.848,10.848,10.848ZM468.479,530.358c6.257,0,11.348-5.091,11.348-11.348s-5.091-11.349-11.348-11.349-11.348,5.091-11.348,11.349,5.091,11.348,11.348,11.348ZM439.782,92.423c2.122,0,3.849-1.726,3.849-3.848s-1.727-3.848-3.849-3.848-3.848,1.726-3.848,3.848,1.726,3.848,3.848,3.848ZM525.869,442.771c5.431,0,9.849-4.418,9.849-9.848s-4.418-9.849-9.849-9.849-9.848,4.418-9.848,9.849,4.418,9.848,9.848,9.848ZM525.869,530.358c6.258,0,11.349-5.091,11.349-11.348s-5.091-11.349-11.349-11.349-11.348,5.091-11.348,11.349,5.091,11.348,11.348,11.348ZM525.869,471.966c5.706,0,10.349-4.642,10.349-10.348s-4.643-10.348-10.349-10.348-10.348,4.642-10.348,10.348,4.642,10.348,10.348,10.348ZM497.174,501.162c5.981,0,10.848-4.866,10.848-10.848s-4.866-10.848-10.848-10.848-10.848,4.866-10.848,10.848,4.866,10.848,10.848,10.848ZM525.869,501.162c5.982,0,10.849-4.866,10.849-10.848s-4.866-10.848-10.849-10.848-10.848,4.866-10.848,10.848,4.866,10.848,10.848,10.848ZM525.869,588.75c6.809,0,12.349-5.54,12.349-12.349s-5.54-12.348-12.349-12.348-12.348,5.539-12.348,12.348,5.539,12.349,12.348,12.349ZM497.174,34.032c1.57,0,2.848-1.277,2.848-2.848s-1.277-2.848-2.848-2.848-2.848,1.278-2.848,2.848,1.277,2.848,2.848,2.848ZM525.869,618.445c7.36,0,13.349-5.987,13.349-13.348s-5.988-13.348-13.349-13.348-13.348,5.987-13.348,13.348,5.987,13.348,13.348,13.348ZM497.174,4.836c1.295,0,2.348-1.053,2.348-2.348s-1.053-2.348-2.348-2.348-2.348,1.053-2.348,2.348,1.053,2.348,2.348,2.348ZM525.869,296.792c4.052,0,7.349-3.296,7.349-7.348s-3.297-7.348-7.349-7.348-7.348,3.296-7.348,7.348,3.296,7.348,7.348,7.348ZM525.869,267.597c3.776,0,6.849-3.072,6.849-6.848s-3.072-6.848-6.849-6.848-6.848,3.072-6.848,6.848,3.072,6.848,6.848,6.848ZM525.869,238.401c3.501,0,6.349-2.848,6.349-6.348s-2.848-6.348-6.349-6.348-6.348,2.848-6.348,6.348,2.848,6.348,6.348,6.348ZM525.869,384.379c4.879,0,8.849-3.969,8.849-8.848s-3.97-8.848-8.849-8.848-8.848,3.969-8.848,8.848,3.969,8.848,8.848,8.848ZM525.869,413.575c5.155,0,9.349-4.193,9.349-9.348s-4.193-9.348-9.349-9.348-9.348,4.193-9.348,9.348,4.193,9.348,9.348,9.348ZM525.869,355.184c4.604,0,8.349-3.745,8.349-8.348s-3.745-8.349-8.349-8.349-8.348,3.745-8.348,8.349,3.745,8.348,8.348,8.348ZM525.869,325.988c4.328,0,7.849-3.521,7.849-7.848s-3.521-7.848-7.849-7.848-7.848,3.521-7.848,7.848,3.521,7.848,7.848,7.848ZM525.869,559.553c6.533,0,11.849-5.314,11.849-11.848s-5.315-11.848-11.849-11.848-11.848,5.314-11.848,11.848,5.314,11.848,11.848,11.848ZM497.174,355.184c4.603,0,8.348-3.745,8.348-8.348s-3.745-8.349-8.348-8.349-8.348,3.745-8.348,8.349,3.745,8.348,8.348,8.348ZM497.174,325.988c4.327,0,7.848-3.521,7.848-7.848s-3.521-7.848-7.848-7.848-7.848,3.521-7.848,7.848,3.521,7.848,7.848,7.848ZM497.174,296.792c4.052,0,7.348-3.296,7.348-7.348s-3.296-7.348-7.348-7.348-7.348,3.296-7.348,7.348,3.296,7.348,7.348,7.348ZM497.174,384.379c4.879,0,8.848-3.969,8.848-8.848s-3.969-8.848-8.848-8.848-8.848,3.969-8.848,8.848,3.969,8.848,8.848,8.848ZM497.174,471.966c5.706,0,10.348-4.642,10.348-10.348s-4.642-10.348-10.348-10.348-10.348,4.642-10.348,10.348,4.642,10.348,10.348,10.348ZM497.174,413.575c5.154,0,9.348-4.193,9.348-9.348s-4.193-9.348-9.348-9.348-9.348,4.193-9.348,9.348,4.193,9.348,9.348,9.348ZM497.174,442.771c5.43,0,9.848-4.418,9.848-9.848s-4.418-9.849-9.848-9.849-9.848,4.418-9.848,9.849,4.418,9.848,9.848,9.848ZM497.174,63.228c1.846,0,3.348-1.502,3.348-3.348s-1.502-3.348-3.348-3.348-3.348,1.502-3.348,3.348,1.502,3.348,3.348,3.348ZM497.174,150.814c2.673,0,4.848-2.175,4.848-4.848s-2.175-4.848-4.848-4.848-4.848,2.175-4.848,4.848,2.175,4.848,4.848,4.848ZM497.174,121.619c2.397,0,4.348-1.95,4.348-4.348s-1.95-4.348-4.348-4.348-4.348,1.951-4.348,4.348,1.95,4.348,4.348,4.348ZM497.174,92.423c2.122,0,3.848-1.726,3.848-3.848s-1.726-3.848-3.848-3.848-3.848,1.726-3.848,3.848,1.726,3.848,3.848,3.848ZM497.174,238.401c3.5,0,6.348-2.848,6.348-6.348s-2.848-6.348-6.348-6.348-6.348,2.848-6.348,6.348,2.848,6.348,6.348,6.348ZM497.174,180.01c2.948,0,5.348-2.399,5.348-5.348s-2.399-5.348-5.348-5.348-5.348,2.399-5.348,5.348,2.399,5.348,5.348,5.348ZM497.174,267.597c3.775,0,6.848-3.072,6.848-6.848s-3.072-6.848-6.848-6.848-6.848,3.072-6.848,6.848,3.072,6.848,6.848,6.848ZM497.174,209.206c3.225,0,5.848-2.623,5.848-5.848s-2.623-5.848-5.848-5.848-5.848,2.624-5.848,5.848,2.623,5.848,5.848,5.848ZM411.087,209.206c3.225,0,5.848-2.623,5.848-5.848s-2.623-5.848-5.848-5.848-5.848,2.624-5.848,5.848,2.623,5.848,5.848,5.848ZM382.392,267.597c3.775,0,6.848-3.072,6.848-6.848s-3.072-6.848-6.848-6.848-6.848,3.072-6.848,6.848,3.072,6.848,6.848,6.848ZM382.392,384.379c4.879,0,8.848-3.969,8.848-8.848s-3.969-8.848-8.848-8.848-8.848,3.969-8.848,8.848,3.969,8.848,8.848,8.848ZM353.695,209.206c3.225,0,5.849-2.623,5.849-5.848s-2.624-5.848-5.849-5.848-5.848,2.624-5.848,5.848,2.623,5.848,5.848,5.848ZM382.392,180.01c2.948,0,5.348-2.399,5.348-5.348s-2.399-5.348-5.348-5.348-5.348,2.399-5.348,5.348,2.399,5.348,5.348,5.348ZM382.392,355.184c4.603,0,8.348-3.745,8.348-8.348s-3.745-8.349-8.348-8.349-8.348,3.745-8.348,8.349,3.745,8.348,8.348,8.348ZM382.392,150.814c2.673,0,4.848-2.175,4.848-4.848s-2.175-4.848-4.848-4.848-4.848,2.175-4.848,4.848,2.175,4.848,4.848,4.848ZM382.392,325.988c4.327,0,7.848-3.521,7.848-7.848s-3.521-7.848-7.848-7.848-7.848,3.521-7.848,7.848,3.521,7.848,7.848,7.848ZM382.392,296.792c4.052,0,7.348-3.296,7.348-7.348s-3.296-7.348-7.348-7.348-7.348,3.296-7.348,7.348,3.296,7.348,7.348,7.348ZM382.392,238.401c3.5,0,6.348-2.848,6.348-6.348s-2.848-6.348-6.348-6.348-6.348,2.848-6.348,6.348,2.848,6.348,6.348,6.348ZM382.392,34.032c1.57,0,2.848-1.277,2.848-2.848s-1.277-2.848-2.848-2.848-2.848,1.278-2.848,2.848,1.277,2.848,2.848,2.848ZM411.087,618.445c7.36,0,13.348-5.987,13.348-13.348s-5.987-13.348-13.348-13.348-13.348,5.987-13.348,13.348,5.987,13.348,13.348,13.348ZM411.087,588.75c6.809,0,12.348-5.54,12.348-12.349s-5.539-12.348-12.348-12.348-12.348,5.539-12.348,12.348,5.539,12.349,12.348,12.349ZM382.392,92.423c2.122,0,3.848-1.726,3.848-3.848s-1.726-3.848-3.848-3.848-3.848,1.726-3.848,3.848,1.726,3.848,3.848,3.848ZM382.392,121.619c2.397,0,4.348-1.95,4.348-4.348s-1.95-4.348-4.348-4.348-4.348,1.951-4.348,4.348,1.95,4.348,4.348,4.348ZM382.392,63.228c1.846,0,3.348-1.502,3.348-3.348s-1.502-3.348-3.348-3.348-3.348,1.502-3.348,3.348,1.502,3.348,3.348,3.348ZM382.392,4.836c1.295,0,2.348-1.053,2.348-2.348s-1.053-2.348-2.348-2.348-2.348,1.053-2.348,2.348,1.053,2.348,2.348,2.348ZM353.695,92.423c2.122,0,3.849-1.726,3.849-3.848s-1.727-3.848-3.849-3.848-3.848,1.726-3.848,3.848,1.726,3.848,3.848,3.848ZM353.695,34.032c1.57,0,2.849-1.277,2.849-2.848s-1.278-2.848-2.849-2.848-2.848,1.278-2.848,2.848,1.277,2.848,2.848,2.848ZM382.392,413.575c5.154,0,9.348-4.193,9.348-9.348s-4.193-9.348-9.348-9.348-9.348,4.193-9.348,9.348,4.193,9.348,9.348,9.348ZM353.695,4.836c1.295,0,2.349-1.053,2.349-2.348s-1.054-2.348-2.349-2.348-2.348,1.053-2.348,2.348,1.053,2.348,2.348,2.348ZM353.695,63.228c1.847,0,3.349-1.502,3.349-3.348s-1.502-3.348-3.349-3.348-3.348,1.502-3.348,3.348,1.502,3.348,3.348,3.348ZM353.695,180.01c2.949,0,5.349-2.399,5.349-5.348s-2.399-5.348-5.349-5.348-5.348,2.399-5.348,5.348,2.399,5.348,5.348,5.348ZM353.695,150.814c2.674,0,4.849-2.175,4.849-4.848s-2.175-4.848-4.849-4.848-4.848,2.175-4.848,4.848,2.175,4.848,4.848,4.848ZM353.695,121.619c2.397,0,4.349-1.95,4.349-4.348s-1.951-4.348-4.349-4.348-4.348,1.951-4.348,4.348,1.95,4.348,4.348,4.348ZM411.087,559.553c6.533,0,11.848-5.314,11.848-11.848s-5.314-11.848-11.848-11.848-11.848,5.314-11.848,11.848,5.314,11.848,11.848,11.848ZM382.392,471.966c5.706,0,10.348-4.642,10.348-10.348s-4.642-10.348-10.348-10.348-10.348,4.642-10.348,10.348,4.642,10.348,10.348,10.348ZM382.392,618.445c7.36,0,13.348-5.987,13.348-13.348s-5.987-13.348-13.348-13.348-13.348,5.987-13.348,13.348,5.987,13.348,13.348,13.348ZM382.392,442.771c5.43,0,9.848-4.418,9.848-9.848s-4.418-9.849-9.848-9.849-9.848,4.418-9.848,9.849,4.418,9.848,9.848,9.848ZM382.392,501.162c5.981,0,10.848-4.866,10.848-10.848s-4.866-10.848-10.848-10.848-10.848,4.866-10.848,10.848,4.866,10.848,10.848,10.848ZM382.392,530.358c6.257,0,11.348-5.091,11.348-11.348s-5.091-11.349-11.348-11.349-11.348,5.091-11.348,11.349,5.091,11.348,11.348,11.348ZM382.392,588.75c6.809,0,12.348-5.54,12.348-12.349s-5.539-12.348-12.348-12.348-12.348,5.539-12.348,12.348,5.539,12.349,12.348,12.349ZM382.392,559.553c6.533,0,11.848-5.314,11.848-11.848s-5.314-11.848-11.848-11.848-11.848,5.314-11.848,11.848,5.314,11.848,11.848,11.848ZM411.087,413.575c5.154,0,9.348-4.193,9.348-9.348s-4.193-9.348-9.348-9.348-9.348,4.193-9.348,9.348,4.193,9.348,9.348,9.348ZM439.782,559.553c6.533,0,11.849-5.314,11.849-11.848s-5.315-11.848-11.849-11.848-11.848,5.314-11.848,11.848,5.314,11.848,11.848,11.848ZM439.782,588.75c6.809,0,12.349-5.54,12.349-12.349s-5.54-12.348-12.349-12.348-12.348,5.539-12.348,12.348,5.539,12.349,12.348,12.349ZM439.782,471.966c5.706,0,10.349-4.642,10.349-10.348s-4.643-10.348-10.349-10.348-10.348,4.642-10.348,10.348,4.642,10.348,10.348,10.348ZM411.087,530.358c6.257,0,11.348-5.091,11.348-11.348s-5.091-11.349-11.348-11.349-11.348,5.091-11.348,11.349,5.091,11.348,11.348,11.348ZM439.782,530.358c6.258,0,11.349-5.091,11.349-11.348s-5.091-11.349-11.349-11.349-11.348,5.091-11.348,11.349,5.091,11.348,11.348,11.348ZM411.087,4.836c1.295,0,2.348-1.053,2.348-2.348s-1.053-2.348-2.348-2.348-2.348,1.053-2.348,2.348,1.053,2.348,2.348,2.348ZM439.782,618.445c7.36,0,13.349-5.987,13.349-13.348s-5.988-13.348-13.349-13.348-13.348,5.987-13.348,13.348,5.987,13.348,13.348,13.348ZM411.087,63.228c1.846,0,3.348-1.502,3.348-3.348s-1.502-3.348-3.348-3.348-3.348,1.502-3.348,3.348,1.502,3.348,3.348,3.348ZM411.087,34.032c1.57,0,2.848-1.277,2.848-2.848s-1.277-2.848-2.848-2.848-2.848,1.278-2.848,2.848,1.277,2.848,2.848,2.848ZM439.782,296.792c4.052,0,7.349-3.296,7.349-7.348s-3.297-7.348-7.349-7.348-7.348,3.296-7.348,7.348,3.296,7.348,7.348,7.348ZM439.782,267.597c3.776,0,6.849-3.072,6.849-6.848s-3.072-6.848-6.849-6.848-6.848,3.072-6.848,6.848,3.072,6.848,6.848,6.848ZM439.782,325.988c4.328,0,7.849-3.521,7.849-7.848s-3.521-7.848-7.849-7.848-7.848,3.521-7.848,7.848,3.521,7.848,7.848,7.848ZM439.782,355.184c4.604,0,8.349-3.745,8.349-8.348s-3.745-8.349-8.349-8.349-8.348,3.745-8.348,8.349,3.745,8.348,8.348,8.348ZM439.782,413.575c5.155,0,9.349-4.193,9.349-9.348s-4.193-9.348-9.349-9.348-9.348,4.193-9.348,9.348,4.193,9.348,9.348,9.348ZM439.782,384.379c4.879,0,8.849-3.969,8.849-8.848s-3.97-8.848-8.849-8.848-8.848,3.969-8.848,8.848,3.969,8.848,8.848,8.848ZM439.782,442.771c5.431,0,9.849-4.418,9.849-9.848s-4.418-9.849-9.849-9.849-9.848,4.418-9.848,9.849,4.418,9.848,9.848,9.848ZM439.782,501.162c5.982,0,10.849-4.866,10.849-10.848s-4.866-10.848-10.849-10.848-10.848,4.866-10.848,10.848,4.866,10.848,10.848,10.848ZM411.087,384.379c4.879,0,8.848-3.969,8.848-8.848s-3.969-8.848-8.848-8.848-8.848,3.969-8.848,8.848,3.969,8.848,8.848,8.848ZM439.782,238.401c3.501,0,6.349-2.848,6.349-6.348s-2.848-6.348-6.349-6.348-6.348,2.848-6.348,6.348,2.848,6.348,6.348,6.348ZM411.087,355.184c4.603,0,8.348-3.745,8.348-8.348s-3.745-8.349-8.348-8.349-8.348,3.745-8.348,8.349,3.745,8.348,8.348,8.348ZM411.087,92.423c2.122,0,3.848-1.726,3.848-3.848s-1.726-3.848-3.848-3.848-3.848,1.726-3.848,3.848,1.726,3.848,3.848,3.848ZM411.087,501.162c5.981,0,10.848-4.866,10.848-10.848s-4.866-10.848-10.848-10.848-10.848,4.866-10.848,10.848,4.866,10.848,10.848,10.848ZM411.087,471.966c5.706,0,10.348-4.642,10.348-10.348s-4.642-10.348-10.348-10.348-10.348,4.642-10.348,10.348,4.642,10.348,10.348,10.348ZM411.087,442.771c5.43,0,9.848-4.418,9.848-9.848s-4.418-9.849-9.848-9.849-9.848,4.418-9.848,9.849,4.418,9.848,9.848,9.848ZM411.087,325.988c4.327,0,7.848-3.521,7.848-7.848s-3.521-7.848-7.848-7.848-7.848,3.521-7.848,7.848,3.521,7.848,7.848,7.848ZM411.087,296.792c4.052,0,7.348-3.296,7.348-7.348s-3.296-7.348-7.348-7.348-7.348,3.296-7.348,7.348,3.296,7.348,7.348,7.348ZM411.087,121.619c2.397,0,4.348-1.95,4.348-4.348s-1.95-4.348-4.348-4.348-4.348,1.951-4.348,4.348,1.95,4.348,4.348,4.348ZM411.087,180.01c2.948,0,5.348-2.399,5.348-5.348s-2.399-5.348-5.348-5.348-5.348,2.399-5.348,5.348,2.399,5.348,5.348,5.348ZM411.087,150.814c2.673,0,4.848-2.175,4.848-4.848s-2.175-4.848-4.848-4.848-4.848,2.175-4.848,4.848,2.175,4.848,4.848,4.848ZM411.087,267.597c3.775,0,6.848-3.072,6.848-6.848s-3.072-6.848-6.848-6.848-6.848,3.072-6.848,6.848,3.072,6.848,6.848,6.848ZM525.869,209.206c3.225,0,5.849-2.623,5.849-5.848s-2.624-5.848-5.849-5.848-5.848,2.624-5.848,5.848,2.623,5.848,5.848,5.848ZM411.087,238.401c3.5,0,6.348-2.848,6.348-6.348s-2.848-6.348-6.348-6.348-6.348,2.848-6.348,6.348,2.848,6.348,6.348,6.348ZM382.392,209.206c3.225,0,5.848-2.623,5.848-5.848s-2.623-5.848-5.848-5.848-5.848,2.624-5.848,5.848,2.623,5.848,5.848,5.848ZM640.652,394.879c-5.154,0-9.348,4.193-9.348,9.348s4.193,9.348,9.348,9.348,9.348-4.193,9.348-9.348-4.193-9.348-9.348-9.348ZM640.652,423.075c-5.43,0-9.848,4.418-9.848,9.849s4.418,9.848,9.848,9.848c4.354,0,8.051-2.843,9.348-6.768v-6.159c-1.297-3.926-4.994-6.769-9.348-6.769ZM640.652,121.619c2.397,0,4.348-1.95,4.348-4.348s-1.95-4.348-4.348-4.348-4.348,1.951-4.348,4.348,1.95,4.348,4.348,4.348ZM640.652,34.032c1.57,0,2.848-1.277,2.848-2.848s-1.277-2.848-2.848-2.848-2.848,1.278-2.848,2.848,1.277,2.848,2.848,2.848ZM640.652,4.836c1.295,0,2.348-1.053,2.348-2.348s-1.053-2.348-2.348-2.348-2.348,1.053-2.348,2.348,1.053,2.348,2.348,2.348ZM640.652,479.466c-5.981,0-10.848,4.866-10.848,10.848s4.866,10.848,10.848,10.848c3.982,0,7.461-2.164,9.348-5.371v-10.954c-1.887-3.207-5.365-5.371-9.348-5.371ZM640.652,92.423c2.122,0,3.848-1.726,3.848-3.848s-1.726-3.848-3.848-3.848-3.848,1.726-3.848,3.848,1.726,3.848,3.848,3.848ZM640.652,63.228c1.846,0,3.348-1.502,3.348-3.348s-1.502-3.348-3.348-3.348-3.348,1.502-3.348,3.348,1.502,3.348,3.348,3.348ZM640.652,451.271c-5.706,0-10.348,4.642-10.348,10.348s4.642,10.348,10.348,10.348c4.128,0,7.688-2.435,9.348-5.939v-8.818c-1.659-3.504-5.22-5.939-9.348-5.939ZM9.348,384.239c4.879,0,8.848-3.969,8.848-8.848s-3.969-8.848-8.848-8.848-8.848,3.969-8.848,8.848,3.969,8.848,8.848,8.848ZM9.348,355.043c4.603,0,8.348-3.745,8.348-8.348s-3.745-8.348-8.348-8.348-8.348,3.745-8.348,8.348,3.745,8.348,8.348,8.348ZM9.348,325.848c4.328,0,7.848-3.521,7.848-7.848s-3.521-7.848-7.848-7.848-7.848,3.521-7.848,7.848,3.521,7.848,7.848,7.848ZM640.652,564.053c-6.809,0-12.348,5.539-12.348,12.348s5.539,12.349,12.348,12.349c3.735,0,7.082-1.674,9.348-4.304v-16.089c-2.266-2.629-5.612-4.303-9.348-4.303ZM640.652,535.858c-6.533,0-11.848,5.314-11.848,11.848s5.314,11.848,11.848,11.848c3.8,0,7.178-1.805,9.348-4.595v-14.506c-2.169-2.79-5.548-4.595-9.348-4.595ZM640.652,507.662c-6.257,0-11.348,5.091-11.348,11.349s5.091,11.348,11.348,11.348c3.875,0,7.299-1.955,9.348-4.928v-12.839c-2.048-2.973-5.473-4.929-9.348-4.929ZM627.305,605.097c0,7.36,5.987,13.348,13.348,13.348,3.638,0,6.938-1.467,9.348-3.835v-19.025c-2.41-2.369-5.709-3.835-9.348-3.835-7.36,0-13.348,5.987-13.348,13.348ZM640.652,238.401c3.5,0,6.348-2.848,6.348-6.348s-2.848-6.348-6.348-6.348-6.348,2.848-6.348,6.348,2.848,6.348,6.348,6.348ZM611.956,4.836c1.295,0,2.349-1.053,2.349-2.348s-1.054-2.348-2.349-2.348-2.348,1.053-2.348,2.348,1.053,2.348,2.348,2.348ZM611.956,34.032c1.57,0,2.849-1.277,2.849-2.848s-1.278-2.848-2.849-2.848-2.848,1.278-2.848,2.848,1.277,2.848,2.848,2.848ZM611.956,63.228c1.847,0,3.349-1.502,3.349-3.348s-1.502-3.348-3.349-3.348-3.348,1.502-3.348,3.348,1.502,3.348,3.348,3.348ZM611.956,150.814c2.674,0,4.849-2.175,4.849-4.848s-2.175-4.848-4.849-4.848-4.848,2.175-4.848,4.848,2.175,4.848,4.848,4.848ZM525.869,180.01c2.949,0,5.349-2.399,5.349-5.348s-2.399-5.348-5.349-5.348-5.348,2.399-5.348,5.348,2.399,5.348,5.348,5.348ZM640.652,150.814c2.673,0,4.848-2.175,4.848-4.848s-2.175-4.848-4.848-4.848-4.848,2.175-4.848,4.848,2.175,4.848,4.848,4.848ZM611.956,180.01c2.949,0,5.349-2.399,5.349-5.348s-2.399-5.348-5.349-5.348-5.348,2.399-5.348,5.348,2.399,5.348,5.348,5.348ZM611.956,121.619c2.397,0,4.349-1.95,4.349-4.348s-1.951-4.348-4.349-4.348-4.348,1.951-4.348,4.348,1.95,4.348,4.348,4.348ZM9.348,296.652c4.052,0,7.348-3.296,7.348-7.348s-3.296-7.348-7.348-7.348-7.348,3.296-7.348,7.348,3.296,7.348,7.348,7.348ZM640.652,209.206c3.225,0,5.848-2.623,5.848-5.848s-2.623-5.848-5.848-5.848-5.848,2.624-5.848,5.848,2.623,5.848,5.848,5.848ZM640.652,355.184c4.603,0,8.348-3.745,8.348-8.348s-3.745-8.349-8.348-8.349-8.348,3.745-8.348,8.349,3.745,8.348,8.348,8.348ZM640.652,180.01c2.948,0,5.348-2.399,5.348-5.348s-2.399-5.348-5.348-5.348-5.348,2.399-5.348,5.348,2.399,5.348,5.348,5.348ZM640.652,267.597c3.775,0,6.848-3.072,6.848-6.848s-3.072-6.848-6.848-6.848-6.848,3.072-6.848,6.848,3.072,6.848,6.848,6.848ZM640.652,325.988c4.327,0,7.848-3.521,7.848-7.848s-3.521-7.848-7.848-7.848-7.848,3.521-7.848,7.848,3.521,7.848,7.848,7.848ZM640.652,296.792c4.052,0,7.348-3.296,7.348-7.348s-3.296-7.348-7.348-7.348-7.348,3.296-7.348,7.348,3.296,7.348,7.348,7.348ZM611.956,92.423c2.122,0,3.849-1.726,3.849-3.848s-1.727-3.848-3.849-3.848-3.848,1.726-3.848,3.848,1.726,3.848,3.848,3.848ZM296.304,619.585c-7.924,0-14.348,6.424-14.348,14.348,0,4.07,1.703,7.737,4.425,10.348h19.846c2.723-2.611,4.425-6.278,4.425-10.348,0-7.924-6.424-14.348-14.348-14.348ZM238.913,619.585c-7.924,0-14.348,6.424-14.348,14.348,0,4.07,1.703,7.737,4.425,10.348h19.846c2.723-2.611,4.425-6.278,4.425-10.348,0-7.924-6.424-14.348-14.348-14.348ZM353.696,619.585c-7.924,0-14.348,6.424-14.348,14.348,0,4.07,1.703,7.737,4.425,10.348h19.846c2.722-2.611,4.425-6.278,4.425-10.348,0-7.924-6.424-14.348-14.348-14.348ZM267.609,619.585c-7.924,0-14.348,6.424-14.348,14.348,0,4.07,1.703,7.737,4.425,10.348h19.845c2.723-2.611,4.425-6.278,4.425-10.348,0-7.924-6.424-14.348-14.348-14.348ZM325,619.585c-7.924,0-14.348,6.424-14.348,14.348,0,4.07,1.703,7.737,4.425,10.348h19.845c2.723-2.611,4.425-6.278,4.425-10.348,0-7.924-6.424-14.348-14.348-14.348ZM439.783,619.585c-7.924,0-14.348,6.424-14.348,14.348,0,4.07,1.703,7.737,4.425,10.348h19.845c2.723-2.611,4.425-6.278,4.425-10.348,0-7.924-6.424-14.348-14.348-14.348ZM382.391,619.585c-7.924,0-14.348,6.424-14.348,14.348,0,4.07,1.703,7.737,4.425,10.348h19.845c2.723-2.611,4.425-6.278,4.425-10.348,0-7.924-6.424-14.348-14.348-14.348ZM411.087,619.585c-7.924,0-14.348,6.424-14.348,14.348,0,4.07,1.703,7.737,4.425,10.348h19.846c2.722-2.611,4.425-6.278,4.425-10.348,0-7.924-6.424-14.348-14.348-14.348ZM95.435,619.585c-7.924,0-14.348,6.424-14.348,14.348,0,4.07,1.703,7.737,4.425,10.348h19.845c2.723-2.611,4.425-6.278,4.425-10.348,0-7.924-6.424-14.348-14.348-14.348ZM468.478,619.585c-7.924,0-14.348,6.424-14.348,14.348,0,4.07,1.703,7.737,4.425,10.348h19.846c2.722-2.611,4.425-6.278,4.425-10.348,0-7.924-6.424-14.348-14.348-14.348ZM210.217,619.585c-7.924,0-14.348,6.424-14.348,14.348,0,4.07,1.703,7.737,4.425,10.348h19.845c2.723-2.611,4.425-6.278,4.425-10.348,0-7.924-6.424-14.348-14.348-14.348ZM38.044,619.585c-7.924,0-14.348,6.424-14.348,14.348,0,4.07,1.703,7.737,4.425,10.348h19.845c2.722-2.611,4.425-6.278,4.425-10.348,0-7.924-6.424-14.348-14.348-14.348ZM66.739,619.585c-7.924,0-14.348,6.424-14.348,14.348,0,4.07,1.703,7.737,4.425,10.348h19.845c2.723-2.611,4.425-6.278,4.425-10.348,0-7.924-6.424-14.348-14.348-14.348ZM124.13,619.585c-7.924,0-14.348,6.424-14.348,14.348,0,4.07,1.703,7.737,4.425,10.348h19.846c2.723-2.611,4.425-6.278,4.425-10.348,0-7.924-6.424-14.348-14.348-14.348ZM181.522,619.585c-7.924,0-14.348,6.424-14.348,14.348,0,4.07,1.703,7.737,4.425,10.348h19.846c2.723-2.611,4.425-6.278,4.425-10.348,0-7.924-6.424-14.348-14.348-14.348ZM152.826,619.585c-7.924,0-14.348,6.424-14.348,14.348,0,4.07,1.703,7.737,4.425,10.348h19.845c2.723-2.611,4.425-6.278,4.425-10.348,0-7.924-6.424-14.348-14.348-14.348ZM9.348,267.457c3.776,0,6.848-3.072,6.848-6.848s-3.072-6.848-6.848-6.848-6.848,3.072-6.848,6.848,3.072,6.848,6.848,6.848ZM9.348,150.674c2.673,0,4.848-2.175,4.848-4.848s-2.175-4.848-4.848-4.848-4.848,2.175-4.848,4.848,2.175,4.848,4.848,4.848ZM9.348,121.478c2.397,0,4.348-1.95,4.348-4.348s-1.951-4.348-4.348-4.348-4.348,1.95-4.348,4.348,1.95,4.348,4.348,4.348ZM9.348,63.087c1.846,0,3.348-1.502,3.348-3.348s-1.502-3.348-3.348-3.348-3.348,1.502-3.348,3.348,1.502,3.348,3.348,3.348ZM9.348,92.283c2.122,0,3.848-1.726,3.848-3.848s-1.726-3.848-3.848-3.848-3.848,1.726-3.848,3.848,1.726,3.848,3.848,3.848ZM9.348,238.261c3.5,0,6.348-2.848,6.348-6.348s-2.848-6.348-6.348-6.348-6.348,2.848-6.348,6.348,2.848,6.348,6.348,6.348ZM9.348,179.87c2.949,0,5.348-2.399,5.348-5.348s-2.399-5.348-5.348-5.348-5.348,2.399-5.348,5.348,2.399,5.348,5.348,5.348ZM9.348,209.065c3.225,0,5.848-2.624,5.848-5.848s-2.624-5.848-5.848-5.848-5.848,2.623-5.848,5.848,2.623,5.848,5.848,5.848ZM9.348,4.696c1.295,0,2.348-1.053,2.348-2.348s-1.053-2.348-2.348-2.348-2.348,1.053-2.348,2.348,1.053,2.348,2.348,2.348ZM497.174,619.585c-7.924,0-14.348,6.424-14.348,14.348,0,4.07,1.703,7.737,4.425,10.348h19.845c2.723-2.611,4.425-6.278,4.425-10.348,0-7.924-6.424-14.348-14.348-14.348ZM583.261,619.585c-7.924,0-14.348,6.424-14.348,14.348,0,4.07,1.703,7.737,4.425,10.348h19.845c2.723-2.611,4.425-6.278,4.425-10.348,0-7.924-6.424-14.348-14.348-14.348ZM525.87,619.585c-7.924,0-14.348,6.424-14.348,14.348,0,4.07,1.703,7.737,4.425,10.348h19.845c2.722-2.611,4.425-6.278,4.425-10.348,0-7.924-6.424-14.348-14.348-14.348ZM554.565,619.585c-7.924,0-14.348,6.424-14.348,14.348,0,4.07,1.703,7.737,4.425,10.348h19.845c2.723-2.611,4.425-6.278,4.425-10.348,0-7.924-6.424-14.348-14.348-14.348ZM9.348,33.891c1.57,0,2.848-1.277,2.848-2.848s-1.278-2.848-2.848-2.848-2.848,1.277-2.848,2.848,1.277,2.848,2.848,2.848ZM650,623.063c-2.512-2.162-5.773-3.477-9.348-3.477-7.924,0-14.348,6.424-14.348,14.348,0,4.07,1.703,7.737,4.425,10.348h19.271v-21.218ZM611.956,619.585c-7.924,0-14.348,6.424-14.348,14.348,0,4.07,1.703,7.737,4.425,10.348h19.846c2.723-2.611,4.425-6.278,4.425-10.348,0-7.924-6.424-14.348-14.348-14.348ZM640.652,384.379c4.879,0,8.848-3.969,8.848-8.848s-3.969-8.848-8.848-8.848-8.848,3.969-8.848,8.848,3.969,8.848,8.848,8.848ZM554.565,209.206c3.225,0,5.848-2.623,5.848-5.848s-2.623-5.848-5.848-5.848-5.848,2.624-5.848,5.848,2.623,5.848,5.848,5.848ZM583.261,530.358c6.257,0,11.348-5.091,11.348-11.348s-5.091-11.349-11.348-11.349-11.348,5.091-11.348,11.349,5.091,11.348,11.348,11.348ZM554.565,238.401c3.5,0,6.348-2.848,6.348-6.348s-2.848-6.348-6.348-6.348-6.348,2.848-6.348,6.348,2.848,6.348,6.348,6.348ZM554.565,150.814c2.673,0,4.848-2.175,4.848-4.848s-2.175-4.848-4.848-4.848-4.848,2.175-4.848,4.848,2.175,4.848,4.848,4.848ZM554.565,180.01c2.948,0,5.348-2.399,5.348-5.348s-2.399-5.348-5.348-5.348-5.348,2.399-5.348,5.348,2.399,5.348,5.348,5.348ZM554.565,325.988c4.327,0,7.848-3.521,7.848-7.848s-3.521-7.848-7.848-7.848-7.848,3.521-7.848,7.848,3.521,7.848,7.848,7.848ZM554.565,355.184c4.603,0,8.348-3.745,8.348-8.348s-3.745-8.349-8.348-8.349-8.348,3.745-8.348,8.349,3.745,8.348,8.348,8.348ZM554.565,267.597c3.775,0,6.848-3.072,6.848-6.848s-3.072-6.848-6.848-6.848-6.848,3.072-6.848,6.848,3.072,6.848,6.848,6.848ZM554.565,296.792c4.052,0,7.348-3.296,7.348-7.348s-3.296-7.348-7.348-7.348-7.348,3.296-7.348,7.348,3.296,7.348,7.348,7.348ZM583.261,588.75c6.809,0,12.348-5.54,12.348-12.349s-5.539-12.348-12.348-12.348-12.348,5.539-12.348,12.348,5.539,12.349,12.348,12.349ZM583.261,559.553c6.533,0,11.848-5.314,11.848-11.848s-5.314-11.848-11.848-11.848-11.848,5.314-11.848,11.848,5.314,11.848,11.848,11.848ZM554.565,92.423c2.122,0,3.848-1.726,3.848-3.848s-1.726-3.848-3.848-3.848-3.848,1.726-3.848,3.848,1.726,3.848,3.848,3.848ZM583.261,618.445c7.36,0,13.348-5.987,13.348-13.348s-5.987-13.348-13.348-13.348-13.348,5.987-13.348,13.348,5.987,13.348,13.348,13.348ZM554.565,63.228c1.846,0,3.348-1.502,3.348-3.348s-1.502-3.348-3.348-3.348-3.348,1.502-3.348,3.348,1.502,3.348,3.348,3.348ZM554.565,4.836c1.295,0,2.348-1.053,2.348-2.348s-1.053-2.348-2.348-2.348-2.348,1.053-2.348,2.348,1.053,2.348,2.348,2.348ZM554.565,34.032c1.57,0,2.848-1.277,2.848-2.848s-1.277-2.848-2.848-2.848-2.848,1.278-2.848,2.848,1.277,2.848,2.848,2.848ZM554.565,121.619c2.397,0,4.348-1.95,4.348-4.348s-1.95-4.348-4.348-4.348-4.348,1.951-4.348,4.348,1.95,4.348,4.348,4.348ZM525.869,4.836c1.295,0,2.349-1.053,2.349-2.348s-1.054-2.348-2.349-2.348-2.348,1.053-2.348,2.348,1.053,2.348,2.348,2.348ZM525.869,63.228c1.847,0,3.349-1.502,3.349-3.348s-1.502-3.348-3.349-3.348-3.348,1.502-3.348,3.348,1.502,3.348,3.348,3.348ZM554.565,618.445c7.36,0,13.348-5.987,13.348-13.348s-5.987-13.348-13.348-13.348-13.348,5.987-13.348,13.348,5.987,13.348,13.348,13.348ZM525.869,34.032c1.57,0,2.849-1.277,2.849-2.848s-1.278-2.848-2.849-2.848-2.848,1.278-2.848,2.848,1.277,2.848,2.848,2.848ZM525.869,92.423c2.122,0,3.849-1.726,3.849-3.848s-1.727-3.848-3.849-3.848-3.848,1.726-3.848,3.848,1.726,3.848,3.848,3.848ZM525.869,150.814c2.674,0,4.849-2.175,4.849-4.848s-2.175-4.848-4.849-4.848-4.848,2.175-4.848,4.848,2.175,4.848,4.848,4.848ZM525.869,121.619c2.397,0,4.349-1.95,4.349-4.348s-1.951-4.348-4.349-4.348-4.348,1.951-4.348,4.348,1.95,4.348,4.348,4.348ZM554.565,530.358c6.257,0,11.348-5.091,11.348-11.348s-5.091-11.349-11.348-11.349-11.348,5.091-11.348,11.349,5.091,11.348,11.348,11.348ZM554.565,471.966c5.706,0,10.348-4.642,10.348-10.348s-4.642-10.348-10.348-10.348-10.348,4.642-10.348,10.348,4.642,10.348,10.348,10.348ZM554.565,588.75c6.809,0,12.348-5.54,12.348-12.349s-5.539-12.348-12.348-12.348-12.348,5.539-12.348,12.348,5.539,12.349,12.348,12.349ZM554.565,413.575c5.154,0,9.348-4.193,9.348-9.348s-4.193-9.348-9.348-9.348-9.348,4.193-9.348,9.348,4.193,9.348,9.348,9.348ZM554.565,442.771c5.43,0,9.848-4.418,9.848-9.848s-4.418-9.849-9.848-9.849-9.848,4.418-9.848,9.849,4.418,9.848,9.848,9.848ZM554.565,501.162c5.981,0,10.848-4.866,10.848-10.848s-4.866-10.848-10.848-10.848-10.848,4.866-10.848,10.848,4.866,10.848,10.848,10.848ZM554.565,559.553c6.533,0,11.848-5.314,11.848-11.848s-5.314-11.848-11.848-11.848-11.848,5.314-11.848,11.848,5.314,11.848,11.848,11.848ZM554.565,384.379c4.879,0,8.848-3.969,8.848-8.848s-3.969-8.848-8.848-8.848-8.848,3.969-8.848,8.848,3.969,8.848,8.848,8.848ZM583.261,267.597c3.775,0,6.848-3.072,6.848-6.848s-3.072-6.848-6.848-6.848-6.848,3.072-6.848,6.848,3.072,6.848,6.848,6.848ZM611.956,559.553c6.533,0,11.849-5.314,11.849-11.848s-5.315-11.848-11.849-11.848-11.848,5.314-11.848,11.848,5.314,11.848,11.848,11.848ZM583.261,4.836c1.295,0,2.348-1.053,2.348-2.348s-1.053-2.348-2.348-2.348-2.348,1.053-2.348,2.348,1.053,2.348,2.348,2.348ZM611.956,501.162c5.982,0,10.849-4.866,10.849-10.848s-4.866-10.848-10.849-10.848-10.848,4.866-10.848,10.848,4.866,10.848,10.848,10.848ZM611.956,471.966c5.706,0,10.349-4.642,10.349-10.348s-4.643-10.348-10.349-10.348-10.348,4.642-10.348,10.348,4.642,10.348,10.348,10.348ZM583.261,34.032c1.57,0,2.848-1.277,2.848-2.848s-1.277-2.848-2.848-2.848-2.848,1.278-2.848,2.848,1.277,2.848,2.848,2.848ZM611.956,442.771c5.431,0,9.849-4.418,9.849-9.848s-4.418-9.849-9.849-9.849-9.848,4.418-9.848,9.849,4.418,9.848,9.848,9.848ZM611.956,588.75c6.809,0,12.349-5.54,12.349-12.349s-5.54-12.348-12.349-12.348-12.348,5.539-12.348,12.348,5.539,12.349,12.348,12.349ZM611.956,618.445c7.36,0,13.349-5.987,13.349-13.348s-5.988-13.348-13.349-13.348-13.348,5.987-13.348,13.348,5.987,13.348,13.348,13.348ZM611.956,530.358c6.258,0,11.349-5.091,11.349-11.348s-5.091-11.349-11.349-11.349-11.348,5.091-11.348,11.349,5.091,11.348,11.348,11.348ZM611.956,267.597c3.776,0,6.849-3.072,6.849-6.848s-3.072-6.848-6.849-6.848-6.848,3.072-6.848,6.848,3.072,6.848,6.848,6.848ZM611.956,296.792c4.052,0,7.349-3.296,7.349-7.348s-3.297-7.348-7.349-7.348-7.348,3.296-7.348,7.348,3.296,7.348,7.348,7.348ZM611.956,238.401c3.501,0,6.349-2.848,6.349-6.348s-2.848-6.348-6.349-6.348-6.348,2.848-6.348,6.348,2.848,6.348,6.348,6.348ZM611.956,384.379c4.879,0,8.849-3.969,8.849-8.848s-3.97-8.848-8.849-8.848-8.848,3.969-8.848,8.848,3.969,8.848,8.848,8.848ZM611.956,413.575c5.155,0,9.349-4.193,9.349-9.348s-4.193-9.348-9.349-9.348-9.348,4.193-9.348,9.348,4.193,9.348,9.348,9.348ZM611.956,355.184c4.604,0,8.349-3.745,8.349-8.348s-3.745-8.349-8.349-8.349-8.348,3.745-8.348,8.349,3.745,8.348,8.348,8.348ZM611.956,325.988c4.328,0,7.849-3.521,7.849-7.848s-3.521-7.848-7.849-7.848-7.848,3.521-7.848,7.848,3.521,7.848,7.848,7.848ZM583.261,413.575c5.154,0,9.348-4.193,9.348-9.348s-4.193-9.348-9.348-9.348-9.348,4.193-9.348,9.348,4.193,9.348,9.348,9.348ZM583.261,355.184c4.603,0,8.348-3.745,8.348-8.348s-3.745-8.349-8.348-8.349-8.348,3.745-8.348,8.349,3.745,8.348,8.348,8.348ZM583.261,384.379c4.879,0,8.848-3.969,8.848-8.848s-3.969-8.848-8.848-8.848-8.848,3.969-8.848,8.848,3.969,8.848,8.848,8.848ZM583.261,325.988c4.327,0,7.848-3.521,7.848-7.848s-3.521-7.848-7.848-7.848-7.848,3.521-7.848,7.848,3.521,7.848,7.848,7.848ZM583.261,501.162c5.981,0,10.848-4.866,10.848-10.848s-4.866-10.848-10.848-10.848-10.848,4.866-10.848,10.848,4.866,10.848,10.848,10.848ZM583.261,296.792c4.052,0,7.348-3.296,7.348-7.348s-3.296-7.348-7.348-7.348-7.348,3.296-7.348,7.348,3.296,7.348,7.348,7.348ZM583.261,63.228c1.846,0,3.348-1.502,3.348-3.348s-1.502-3.348-3.348-3.348-3.348,1.502-3.348,3.348,1.502,3.348,3.348,3.348ZM583.261,442.771c5.43,0,9.848-4.418,9.848-9.848s-4.418-9.849-9.848-9.849-9.848,4.418-9.848,9.849,4.418,9.848,9.848,9.848ZM583.261,471.966c5.706,0,10.348-4.642,10.348-10.348s-4.642-10.348-10.348-10.348-10.348,4.642-10.348,10.348,4.642,10.348,10.348,10.348ZM583.261,121.619c2.397,0,4.348-1.95,4.348-4.348s-1.95-4.348-4.348-4.348-4.348,1.951-4.348,4.348,1.95,4.348,4.348,4.348ZM583.261,150.814c2.673,0,4.848-2.175,4.848-4.848s-2.175-4.848-4.848-4.848-4.848,2.175-4.848,4.848,2.175,4.848,4.848,4.848ZM583.261,92.423c2.122,0,3.848-1.726,3.848-3.848s-1.726-3.848-3.848-3.848-3.848,1.726-3.848,3.848,1.726,3.848,3.848,3.848ZM583.261,180.01c2.948,0,5.348-2.399,5.348-5.348s-2.399-5.348-5.348-5.348-5.348,2.399-5.348,5.348,2.399,5.348,5.348,5.348ZM583.261,238.401c3.5,0,6.348-2.848,6.348-6.348s-2.848-6.348-6.348-6.348-6.348,2.848-6.348,6.348,2.848,6.348,6.348,6.348ZM611.956,209.206c3.225,0,5.849-2.623,5.849-5.848s-2.624-5.848-5.849-5.848-5.848,2.624-5.848,5.848,2.623,5.848,5.848,5.848ZM583.261,209.206c3.225,0,5.848-2.623,5.848-5.848s-2.623-5.848-5.848-5.848-5.848,2.624-5.848,5.848,2.623,5.848,5.848,5.848ZM9.348,471.826c5.706,0,10.348-4.642,10.348-10.348s-4.642-10.348-10.348-10.348c-4.128,0-7.688,2.435-9.348,5.939v8.817c1.66,3.504,5.22,5.939,9.348,5.939ZM124.13,238.401c3.5,0,6.348-2.848,6.348-6.348s-2.848-6.348-6.348-6.348-6.348,2.848-6.348,6.348,2.848,6.348,6.348,6.348ZM124.13,209.206c3.225,0,5.848-2.623,5.848-5.848s-2.624-5.848-5.848-5.848-5.848,2.624-5.848,5.848,2.623,5.848,5.848,5.848ZM124.13,267.597c3.776,0,6.848-3.072,6.848-6.848s-3.072-6.848-6.848-6.848-6.848,3.072-6.848,6.848,3.072,6.848,6.848,6.848ZM124.13,180.01c2.949,0,5.348-2.399,5.348-5.348s-2.399-5.348-5.348-5.348-5.348,2.399-5.348,5.348,2.399,5.348,5.348,5.348ZM124.13,355.184c4.603,0,8.348-3.745,8.348-8.348s-3.745-8.349-8.348-8.349-8.348,3.745-8.348,8.349,3.745,8.348,8.348,8.348ZM124.13,150.814c2.673,0,4.848-2.175,4.848-4.848s-2.175-4.848-4.848-4.848-4.848,2.175-4.848,4.848,2.175,4.848,4.848,4.848ZM124.13,325.988c4.328,0,7.848-3.521,7.848-7.848s-3.521-7.848-7.848-7.848-7.848,3.521-7.848,7.848,3.521,7.848,7.848,7.848ZM124.13,296.792c4.052,0,7.348-3.296,7.348-7.348s-3.296-7.348-7.348-7.348-7.348,3.296-7.348,7.348,3.296,7.348,7.348,7.348ZM124.13,4.836c1.295,0,2.348-1.053,2.348-2.348s-1.053-2.348-2.348-2.348-2.348,1.053-2.348,2.348,1.053,2.348,2.348,2.348ZM152.826,618.445c7.36,0,13.348-5.987,13.348-13.348s-5.988-13.348-13.348-13.348-13.348,5.987-13.348,13.348,5.988,13.348,13.348,13.348ZM124.13,34.032c1.57,0,2.848-1.277,2.848-2.848s-1.278-2.848-2.848-2.848-2.848,1.278-2.848,2.848,1.277,2.848,2.848,2.848ZM152.826,588.75c6.809,0,12.348-5.54,12.348-12.349s-5.539-12.348-12.348-12.348-12.348,5.539-12.348,12.348,5.539,12.349,12.348,12.349ZM124.13,384.379c4.879,0,8.848-3.969,8.848-8.848s-3.969-8.848-8.848-8.848-8.848,3.969-8.848,8.848,3.969,8.848,8.848,8.848ZM124.13,92.423c2.122,0,3.848-1.726,3.848-3.848s-1.726-3.848-3.848-3.848-3.848,1.726-3.848,3.848,1.726,3.848,3.848,3.848ZM124.13,121.619c2.397,0,4.348-1.95,4.348-4.348s-1.951-4.348-4.348-4.348-4.348,1.951-4.348,4.348,1.95,4.348,4.348,4.348ZM152.826,559.553c6.533,0,11.848-5.314,11.848-11.848s-5.315-11.848-11.848-11.848-11.848,5.314-11.848,11.848,5.315,11.848,11.848,11.848ZM124.13,63.228c1.846,0,3.348-1.502,3.348-3.348s-1.502-3.348-3.348-3.348-3.348,1.502-3.348,3.348,1.502,3.348,3.348,3.348ZM95.435,238.401c3.5,0,6.348-2.848,6.348-6.348s-2.848-6.348-6.348-6.348-6.348,2.848-6.348,6.348,2.848,6.348,6.348,6.348ZM95.435,63.228c1.846,0,3.348-1.502,3.348-3.348s-1.502-3.348-3.348-3.348-3.348,1.502-3.348,3.348,1.502,3.348,3.348,3.348ZM95.435,4.836c1.295,0,2.348-1.053,2.348-2.348s-1.053-2.348-2.348-2.348-2.348,1.053-2.348,2.348,1.053,2.348,2.348,2.348ZM95.435,121.619c2.397,0,4.348-1.95,4.348-4.348s-1.951-4.348-4.348-4.348-4.348,1.951-4.348,4.348,1.95,4.348,4.348,4.348ZM124.13,413.575c5.155,0,9.348-4.193,9.348-9.348s-4.193-9.348-9.348-9.348-9.348,4.193-9.348,9.348,4.193,9.348,9.348,9.348ZM95.435,209.206c3.225,0,5.848-2.623,5.848-5.848s-2.624-5.848-5.848-5.848-5.848,2.624-5.848,5.848,2.623,5.848,5.848,5.848ZM95.435,180.01c2.949,0,5.348-2.399,5.348-5.348s-2.399-5.348-5.348-5.348-5.348,2.399-5.348,5.348,2.399,5.348,5.348,5.348ZM95.435,34.032c1.57,0,2.848-1.277,2.848-2.848s-1.278-2.848-2.848-2.848-2.848,1.278-2.848,2.848,1.277,2.848,2.848,2.848ZM95.435,150.814c2.673,0,4.848-2.175,4.848-4.848s-2.175-4.848-4.848-4.848-4.848,2.175-4.848,4.848,2.175,4.848,4.848,4.848ZM124.13,501.162c5.981,0,10.848-4.866,10.848-10.848s-4.867-10.848-10.848-10.848-10.848,4.866-10.848,10.848,4.866,10.848,10.848,10.848ZM124.13,471.966c5.706,0,10.348-4.642,10.348-10.348s-4.642-10.348-10.348-10.348-10.348,4.642-10.348,10.348,4.642,10.348,10.348,10.348ZM124.13,442.771c5.43,0,9.848-4.418,9.848-9.848s-4.418-9.849-9.848-9.849-9.848,4.418-9.848,9.849,4.417,9.848,9.848,9.848ZM124.13,559.553c6.533,0,11.848-5.314,11.848-11.848s-5.315-11.848-11.848-11.848-11.848,5.314-11.848,11.848,5.315,11.848,11.848,11.848ZM124.13,588.75c6.809,0,12.348-5.54,12.348-12.349s-5.54-12.348-12.348-12.348-12.348,5.539-12.348,12.348,5.539,12.349,12.348,12.349ZM124.13,530.358c6.257,0,11.348-5.091,11.348-11.348s-5.091-11.349-11.348-11.349-11.348,5.091-11.348,11.349,5.09,11.348,11.348,11.348ZM124.13,618.445c7.36,0,13.348-5.987,13.348-13.348s-5.988-13.348-13.348-13.348-13.348,5.987-13.348,13.348,5.988,13.348,13.348,13.348ZM95.435,92.423c2.122,0,3.848-1.726,3.848-3.848s-1.726-3.848-3.848-3.848-3.848,1.726-3.848,3.848,1.726,3.848,3.848,3.848ZM181.522,559.553c6.533,0,11.848-5.314,11.848-11.848s-5.315-11.848-11.848-11.848-11.848,5.314-11.848,11.848,5.315,11.848,11.848,11.848ZM181.522,530.358c6.257,0,11.348-5.091,11.348-11.348s-5.09-11.349-11.348-11.349-11.348,5.091-11.348,11.349,5.091,11.348,11.348,11.348ZM181.522,501.162c5.981,0,10.848-4.866,10.848-10.848s-4.866-10.848-10.848-10.848-10.848,4.866-10.848,10.848,4.867,10.848,10.848,10.848ZM181.522,588.75c6.809,0,12.348-5.54,12.348-12.349s-5.539-12.348-12.348-12.348-12.348,5.539-12.348,12.348,5.54,12.349,12.348,12.349ZM181.522,471.966c5.706,0,10.348-4.642,10.348-10.348s-4.642-10.348-10.348-10.348-10.348,4.642-10.348,10.348,4.642,10.348,10.348,10.348ZM181.522,618.445c7.36,0,13.348-5.987,13.348-13.348s-5.988-13.348-13.348-13.348-13.348,5.987-13.348,13.348,5.988,13.348,13.348,13.348ZM152.826,63.228c1.846,0,3.348-1.502,3.348-3.348s-1.502-3.348-3.348-3.348-3.348,1.502-3.348,3.348,1.502,3.348,3.348,3.348ZM152.826,34.032c1.57,0,2.848-1.277,2.848-2.848s-1.277-2.848-2.848-2.848-2.848,1.278-2.848,2.848,1.277,2.848,2.848,2.848ZM152.826,4.836c1.294,0,2.348-1.053,2.348-2.348s-1.053-2.348-2.348-2.348-2.348,1.053-2.348,2.348,1.053,2.348,2.348,2.348ZM181.522,296.792c4.051,0,7.348-3.296,7.348-7.348s-3.296-7.348-7.348-7.348-7.348,3.296-7.348,7.348,3.296,7.348,7.348,7.348ZM181.522,267.597c3.776,0,6.848-3.072,6.848-6.848s-3.072-6.848-6.848-6.848-6.848,3.072-6.848,6.848,3.072,6.848,6.848,6.848ZM181.522,325.988c4.327,0,7.848-3.521,7.848-7.848s-3.521-7.848-7.848-7.848-7.848,3.521-7.848,7.848,3.521,7.848,7.848,7.848ZM181.522,413.575c5.154,0,9.348-4.193,9.348-9.348s-4.193-9.348-9.348-9.348-9.348,4.193-9.348,9.348,4.193,9.348,9.348,9.348ZM181.522,355.184c4.603,0,8.348-3.745,8.348-8.348s-3.745-8.349-8.348-8.349-8.348,3.745-8.348,8.349,3.745,8.348,8.348,8.348ZM181.522,442.771c5.43,0,9.848-4.418,9.848-9.848s-4.417-9.849-9.848-9.849-9.848,4.418-9.848,9.849,4.418,9.848,9.848,9.848ZM181.522,384.379c4.878,0,8.848-3.969,8.848-8.848s-3.969-8.848-8.848-8.848-8.848,3.969-8.848,8.848,3.969,8.848,8.848,8.848ZM152.826,296.792c4.051,0,7.348-3.296,7.348-7.348s-3.296-7.348-7.348-7.348-7.348,3.296-7.348,7.348,3.296,7.348,7.348,7.348ZM152.826,413.575c5.154,0,9.348-4.193,9.348-9.348s-4.193-9.348-9.348-9.348-9.348,4.193-9.348,9.348,4.193,9.348,9.348,9.348ZM152.826,384.379c4.878,0,8.848-3.969,8.848-8.848s-3.969-8.848-8.848-8.848-8.848,3.969-8.848,8.848,3.969,8.848,8.848,8.848ZM152.826,355.184c4.603,0,8.348-3.745,8.348-8.348s-3.745-8.349-8.348-8.349-8.348,3.745-8.348,8.349,3.745,8.348,8.348,8.348ZM152.826,442.771c5.43,0,9.848-4.418,9.848-9.848s-4.417-9.849-9.848-9.849-9.848,4.418-9.848,9.849,4.417,9.848,9.848,9.848ZM152.826,325.988c4.327,0,7.848-3.521,7.848-7.848s-3.521-7.848-7.848-7.848-7.848,3.521-7.848,7.848,3.521,7.848,7.848,7.848ZM152.826,501.162c5.981,0,10.848-4.866,10.848-10.848s-4.866-10.848-10.848-10.848-10.848,4.866-10.848,10.848,4.866,10.848,10.848,10.848ZM152.826,471.966c5.706,0,10.348-4.642,10.348-10.348s-4.642-10.348-10.348-10.348-10.348,4.642-10.348,10.348,4.642,10.348,10.348,10.348ZM152.826,267.597c3.776,0,6.848-3.072,6.848-6.848s-3.072-6.848-6.848-6.848-6.848,3.072-6.848,6.848,3.072,6.848,6.848,6.848ZM152.826,150.814c2.673,0,4.848-2.175,4.848-4.848s-2.175-4.848-4.848-4.848-4.848,2.175-4.848,4.848,2.175,4.848,4.848,4.848ZM152.826,180.01c2.949,0,5.348-2.399,5.348-5.348s-2.399-5.348-5.348-5.348-5.348,2.399-5.348,5.348,2.399,5.348,5.348,5.348ZM152.826,121.619c2.397,0,4.348-1.95,4.348-4.348s-1.95-4.348-4.348-4.348-4.348,1.951-4.348,4.348,1.95,4.348,4.348,4.348ZM152.826,530.358c6.257,0,11.348-5.091,11.348-11.348s-5.09-11.349-11.348-11.349-11.348,5.091-11.348,11.349,5.09,11.348,11.348,11.348ZM152.826,209.206c3.225,0,5.848-2.623,5.848-5.848s-2.623-5.848-5.848-5.848-5.848,2.624-5.848,5.848,2.623,5.848,5.848,5.848ZM152.826,92.423c2.122,0,3.848-1.726,3.848-3.848s-1.726-3.848-3.848-3.848-3.848,1.726-3.848,3.848,1.726,3.848,3.848,3.848ZM152.826,238.401c3.5,0,6.348-2.848,6.348-6.348s-2.848-6.348-6.348-6.348-6.348,2.848-6.348,6.348,2.848,6.348,6.348,6.348ZM95.435,296.792c4.052,0,7.348-3.296,7.348-7.348s-3.296-7.348-7.348-7.348-7.348,3.296-7.348,7.348,3.296,7.348,7.348,7.348ZM38.043,296.792c4.051,0,7.348-3.296,7.348-7.348s-3.296-7.348-7.348-7.348-7.348,3.296-7.348,7.348,3.296,7.348,7.348,7.348ZM38.043,267.597c3.776,0,6.848-3.072,6.848-6.848s-3.072-6.848-6.848-6.848-6.848,3.072-6.848,6.848,3.072,6.848,6.848,6.848ZM38.043,238.401c3.5,0,6.348-2.848,6.348-6.348s-2.848-6.348-6.348-6.348-6.348,2.848-6.348,6.348,2.848,6.348,6.348,6.348ZM38.043,209.206c3.225,0,5.848-2.623,5.848-5.848s-2.623-5.848-5.848-5.848-5.848,2.624-5.848,5.848,2.623,5.848,5.848,5.848ZM38.043,384.379c4.878,0,8.848-3.969,8.848-8.848s-3.969-8.848-8.848-8.848-8.848,3.969-8.848,8.848,3.969,8.848,8.848,8.848ZM38.043,325.988c4.327,0,7.848-3.521,7.848-7.848s-3.521-7.848-7.848-7.848-7.848,3.521-7.848,7.848,3.521,7.848,7.848,7.848ZM38.043,180.01c2.949,0,5.348-2.399,5.348-5.348s-2.399-5.348-5.348-5.348-5.348,2.399-5.348,5.348,2.399,5.348,5.348,5.348ZM38.043,355.184c4.603,0,8.348-3.745,8.348-8.348s-3.745-8.349-8.348-8.349-8.348,3.745-8.348,8.349,3.745,8.348,8.348,8.348ZM95.435,267.597c3.776,0,6.848-3.072,6.848-6.848s-3.072-6.848-6.848-6.848-6.848,3.072-6.848,6.848,3.072,6.848,6.848,6.848ZM38.043,34.032c1.57,0,2.848-1.277,2.848-2.848s-1.277-2.848-2.848-2.848-2.848,1.278-2.848,2.848,1.277,2.848,2.848,2.848ZM66.739,588.75c6.809,0,12.348-5.54,12.348-12.349s-5.539-12.348-12.348-12.348-12.348,5.539-12.348,12.348,5.54,12.349,12.348,12.349ZM38.043,4.836c1.294,0,2.348-1.053,2.348-2.348s-1.053-2.348-2.348-2.348-2.348,1.053-2.348,2.348,1.053,2.348,2.348,2.348ZM38.043,63.228c1.846,0,3.348-1.502,3.348-3.348s-1.502-3.348-3.348-3.348-3.348,1.502-3.348,3.348,1.502,3.348,3.348,3.348ZM38.043,121.619c2.397,0,4.348-1.95,4.348-4.348s-1.95-4.348-4.348-4.348-4.348,1.951-4.348,4.348,1.95,4.348,4.348,4.348ZM38.043,150.814c2.673,0,4.848-2.175,4.848-4.848s-2.175-4.848-4.848-4.848-4.848,2.175-4.848,4.848,2.175,4.848,4.848,4.848ZM38.043,92.423c2.122,0,3.848-1.726,3.848-3.848s-1.726-3.848-3.848-3.848-3.848,1.726-3.848,3.848,1.726,3.848,3.848,3.848ZM66.739,618.445c7.36,0,13.348-5.987,13.348-13.348s-5.988-13.348-13.348-13.348-13.348,5.987-13.348,13.348,5.988,13.348,13.348,13.348ZM9.348,559.413c6.533,0,11.848-5.314,11.848-11.848s-5.315-11.848-11.848-11.848c-3.8,0-7.178,1.805-9.348,4.595v14.506c2.17,2.79,5.548,4.595,9.348,4.595ZM9.348,530.217c6.257,0,11.348-5.091,11.348-11.348s-5.091-11.348-11.348-11.348c-3.875,0-7.3,1.955-9.348,4.928v12.839c2.048,2.973,5.472,4.928,9.348,4.928ZM9.348,588.609c6.809,0,12.348-5.539,12.348-12.348s-5.54-12.349-12.348-12.349c-3.735,0-7.082,1.674-9.348,4.304v16.089c2.266,2.629,5.612,4.303,9.348,4.303ZM9.348,413.435c5.155,0,9.348-4.193,9.348-9.348s-4.193-9.349-9.348-9.349-9.348,4.193-9.348,9.349,4.193,9.348,9.348,9.348ZM9.348,591.609c-3.638,0-6.938,1.467-9.348,3.835v19.025c2.41,2.369,5.709,3.835,9.348,3.835,7.36,0,13.348-5.987,13.348-13.348s-5.988-13.348-13.348-13.348ZM9.348,501.022c5.981,0,10.848-4.866,10.848-10.848s-4.867-10.849-10.848-10.849c-3.982,0-7.461,2.164-9.348,5.371v10.955c1.887,3.207,5.365,5.371,9.348,5.371ZM23.696,633.793c0-7.924-6.424-14.348-14.348-14.348-3.574,0-6.836,1.315-9.348,3.477v21.359h19.116c2.811-2.619,4.58-6.343,4.58-10.488ZM38.043,588.75c6.809,0,12.348-5.54,12.348-12.349s-5.539-12.348-12.348-12.348-12.348,5.539-12.348,12.348,5.539,12.349,12.348,12.349ZM38.043,501.162c5.981,0,10.848-4.866,10.848-10.848s-4.866-10.848-10.848-10.848-10.848,4.866-10.848,10.848,4.866,10.848,10.848,10.848ZM38.043,471.966c5.706,0,10.348-4.642,10.348-10.348s-4.642-10.348-10.348-10.348-10.348,4.642-10.348,10.348,4.642,10.348,10.348,10.348ZM9.348,442.63c5.43,0,9.848-4.418,9.848-9.848s-4.418-9.848-9.848-9.848c-4.354,0-8.051,2.844-9.348,6.768v6.158c1.297,3.925,4.993,6.768,9.348,6.768ZM38.043,530.358c6.257,0,11.348-5.091,11.348-11.348s-5.09-11.349-11.348-11.349-11.348,5.091-11.348,11.349,5.09,11.348,11.348,11.348ZM38.043,559.553c6.533,0,11.848-5.314,11.848-11.848s-5.315-11.848-11.848-11.848-11.848,5.314-11.848,11.848,5.315,11.848,11.848,11.848ZM38.043,618.445c7.36,0,13.348-5.987,13.348-13.348s-5.988-13.348-13.348-13.348-13.348,5.987-13.348,13.348,5.988,13.348,13.348,13.348ZM38.043,442.771c5.43,0,9.848-4.418,9.848-9.848s-4.417-9.849-9.848-9.849-9.848,4.418-9.848,9.849,4.417,9.848,9.848,9.848ZM38.043,413.575c5.154,0,9.348-4.193,9.348-9.348s-4.193-9.348-9.348-9.348-9.348,4.193-9.348,9.348,4.193,9.348,9.348,9.348ZM95.435,559.553c6.533,0,11.848-5.314,11.848-11.848s-5.315-11.848-11.848-11.848-11.848,5.314-11.848,11.848,5.315,11.848,11.848,11.848ZM95.435,618.445c7.36,0,13.348-5.987,13.348-13.348s-5.988-13.348-13.348-13.348-13.348,5.987-13.348,13.348,5.988,13.348,13.348,13.348ZM95.435,501.162c5.981,0,10.848-4.866,10.848-10.848s-4.867-10.848-10.848-10.848-10.848,4.866-10.848,10.848,4.866,10.848,10.848,10.848ZM95.435,530.358c6.257,0,11.348-5.091,11.348-11.348s-5.091-11.349-11.348-11.349-11.348,5.091-11.348,11.349,5.09,11.348,11.348,11.348ZM66.739,92.423c2.122,0,3.848-1.726,3.848-3.848s-1.726-3.848-3.848-3.848-3.848,1.726-3.848,3.848,1.726,3.848,3.848,3.848ZM66.739,63.228c1.846,0,3.348-1.502,3.348-3.348s-1.502-3.348-3.348-3.348-3.348,1.502-3.348,3.348,1.502,3.348,3.348,3.348ZM66.739,34.032c1.57,0,2.848-1.277,2.848-2.848s-1.277-2.848-2.848-2.848-2.848,1.278-2.848,2.848,1.278,2.848,2.848,2.848ZM66.739,4.836c1.294,0,2.348-1.053,2.348-2.348s-1.053-2.348-2.348-2.348-2.348,1.053-2.348,2.348,1.053,2.348,2.348,2.348ZM95.435,588.75c6.809,0,12.348-5.54,12.348-12.349s-5.54-12.348-12.348-12.348-12.348,5.539-12.348,12.348,5.539,12.349,12.348,12.349ZM95.435,325.988c4.328,0,7.848-3.521,7.848-7.848s-3.521-7.848-7.848-7.848-7.848,3.521-7.848,7.848,3.521,7.848,7.848,7.848ZM95.435,355.184c4.603,0,8.348-3.745,8.348-8.348s-3.745-8.349-8.348-8.349-8.348,3.745-8.348,8.349,3.745,8.348,8.348,8.348ZM66.739,559.553c6.533,0,11.848-5.314,11.848-11.848s-5.315-11.848-11.848-11.848-11.848,5.314-11.848,11.848,5.315,11.848,11.848,11.848ZM95.435,413.575c5.155,0,9.348-4.193,9.348-9.348s-4.193-9.348-9.348-9.348-9.348,4.193-9.348,9.348,4.193,9.348,9.348,9.348ZM95.435,384.379c4.879,0,8.848-3.969,8.848-8.848s-3.969-8.848-8.848-8.848-8.848,3.969-8.848,8.848,3.969,8.848,8.848,8.848ZM95.435,442.771c5.43,0,9.848-4.418,9.848-9.848s-4.418-9.849-9.848-9.849-9.848,4.418-9.848,9.849,4.417,9.848,9.848,9.848ZM95.435,471.966c5.706,0,10.348-4.642,10.348-10.348s-4.642-10.348-10.348-10.348-10.348,4.642-10.348,10.348,4.642,10.348,10.348,10.348ZM181.522,238.401c3.5,0,6.348-2.848,6.348-6.348s-2.848-6.348-6.348-6.348-6.348,2.848-6.348,6.348,2.848,6.348,6.348,6.348ZM66.739,442.771c5.43,0,9.848-4.418,9.848-9.848s-4.417-9.849-9.848-9.849-9.848,4.418-9.848,9.849,4.418,9.848,9.848,9.848ZM66.739,413.575c5.154,0,9.348-4.193,9.348-9.348s-4.193-9.348-9.348-9.348-9.348,4.193-9.348,9.348,4.193,9.348,9.348,9.348ZM66.739,384.379c4.878,0,8.848-3.969,8.848-8.848s-3.969-8.848-8.848-8.848-8.848,3.969-8.848,8.848,3.969,8.848,8.848,8.848ZM66.739,355.184c4.603,0,8.348-3.745,8.348-8.348s-3.745-8.349-8.348-8.349-8.348,3.745-8.348,8.349,3.745,8.348,8.348,8.348ZM66.739,471.966c5.706,0,10.348-4.642,10.348-10.348s-4.642-10.348-10.348-10.348-10.348,4.642-10.348,10.348,4.642,10.348,10.348,10.348ZM66.739,530.358c6.257,0,11.348-5.091,11.348-11.348s-5.09-11.349-11.348-11.349-11.348,5.091-11.348,11.349,5.091,11.348,11.348,11.348ZM66.739,501.162c5.981,0,10.848-4.866,10.848-10.848s-4.866-10.848-10.848-10.848-10.848,4.866-10.848,10.848,4.867,10.848,10.848,10.848ZM66.739,238.401c3.5,0,6.348-2.848,6.348-6.348s-2.848-6.348-6.348-6.348-6.348,2.848-6.348,6.348,2.848,6.348,6.348,6.348ZM66.739,180.01c2.949,0,5.348-2.399,5.348-5.348s-2.399-5.348-5.348-5.348-5.348,2.399-5.348,5.348,2.399,5.348,5.348,5.348ZM66.739,150.814c2.673,0,4.848-2.175,4.848-4.848s-2.175-4.848-4.848-4.848-4.848,2.175-4.848,4.848,2.175,4.848,4.848,4.848ZM66.739,325.988c4.327,0,7.848-3.521,7.848-7.848s-3.521-7.848-7.848-7.848-7.848,3.521-7.848,7.848,3.521,7.848,7.848,7.848ZM66.739,209.206c3.225,0,5.848-2.623,5.848-5.848s-2.623-5.848-5.848-5.848-5.848,2.624-5.848,5.848,2.624,5.848,5.848,5.848ZM66.739,121.619c2.397,0,4.348-1.95,4.348-4.348s-1.95-4.348-4.348-4.348-4.348,1.951-4.348,4.348,1.951,4.348,4.348,4.348ZM66.739,296.792c4.051,0,7.348-3.296,7.348-7.348s-3.296-7.348-7.348-7.348-7.348,3.296-7.348,7.348,3.296,7.348,7.348,7.348ZM66.739,267.597c3.776,0,6.848-3.072,6.848-6.848s-3.072-6.848-6.848-6.848-6.848,3.072-6.848,6.848,3.072,6.848,6.848,6.848ZM325,618.445c7.36,0,13.348-5.987,13.348-13.348s-5.987-13.348-13.348-13.348-13.348,5.987-13.348,13.348,5.988,13.348,13.348,13.348ZM296.304,267.597c3.776,0,6.848-3.072,6.848-6.848s-3.072-6.848-6.848-6.848-6.848,3.072-6.848,6.848,3.072,6.848,6.848,6.848ZM296.304,238.401c3.5,0,6.348-2.848,6.348-6.348s-2.848-6.348-6.348-6.348-6.348,2.848-6.348,6.348,2.848,6.348,6.348,6.348ZM296.304,209.206c3.225,0,5.848-2.623,5.848-5.848s-2.624-5.848-5.848-5.848-5.848,2.624-5.848,5.848,2.623,5.848,5.848,5.848ZM296.304,150.814c2.673,0,4.848-2.175,4.848-4.848s-2.175-4.848-4.848-4.848-4.848,2.175-4.848,4.848,2.175,4.848,4.848,4.848ZM296.304,180.01c2.949,0,5.348-2.399,5.348-5.348s-2.399-5.348-5.348-5.348-5.348,2.399-5.348,5.348,2.399,5.348,5.348,5.348ZM267.609,209.206c3.225,0,5.848-2.623,5.848-5.848s-2.623-5.848-5.848-5.848-5.848,2.624-5.848,5.848,2.624,5.848,5.848,5.848ZM296.304,355.184c4.603,0,8.348-3.745,8.348-8.348s-3.745-8.349-8.348-8.349-8.348,3.745-8.348,8.349,3.745,8.348,8.348,8.348ZM296.304,325.988c4.328,0,7.848-3.521,7.848-7.848s-3.521-7.848-7.848-7.848-7.848,3.521-7.848,7.848,3.521,7.848,7.848,7.848ZM296.304,92.423c2.122,0,3.848-1.726,3.848-3.848s-1.726-3.848-3.848-3.848-3.848,1.726-3.848,3.848,1.726,3.848,3.848,3.848ZM296.304,34.032c1.57,0,2.848-1.277,2.848-2.848s-1.278-2.848-2.848-2.848-2.848,1.278-2.848,2.848,1.277,2.848,2.848,2.848ZM296.304,121.619c2.397,0,4.348-1.95,4.348-4.348s-1.951-4.348-4.348-4.348-4.348,1.951-4.348,4.348,1.95,4.348,4.348,4.348ZM325,588.75c6.809,0,12.348-5.54,12.348-12.349s-5.539-12.348-12.348-12.348-12.348,5.539-12.348,12.348,5.539,12.349,12.348,12.349ZM353.695,238.401c3.501,0,6.349-2.848,6.349-6.348s-2.848-6.348-6.349-6.348-6.348,2.848-6.348,6.348,2.848,6.348,6.348,6.348ZM296.304,4.836c1.295,0,2.348-1.053,2.348-2.348s-1.053-2.348-2.348-2.348-2.348,1.053-2.348,2.348,1.053,2.348,2.348,2.348ZM296.304,384.379c4.879,0,8.848-3.969,8.848-8.848s-3.969-8.848-8.848-8.848-8.848,3.969-8.848,8.848,3.969,8.848,8.848,8.848ZM296.304,63.228c1.846,0,3.348-1.502,3.348-3.348s-1.502-3.348-3.348-3.348-3.348,1.502-3.348,3.348,1.502,3.348,3.348,3.348ZM267.609,63.228c1.846,0,3.348-1.502,3.348-3.348s-1.502-3.348-3.348-3.348-3.348,1.502-3.348,3.348,1.502,3.348,3.348,3.348ZM325,559.553c6.533,0,11.848-5.314,11.848-11.848s-5.314-11.848-11.848-11.848-11.848,5.314-11.848,11.848,5.315,11.848,11.848,11.848ZM267.609,92.423c2.122,0,3.848-1.726,3.848-3.848s-1.726-3.848-3.848-3.848-3.848,1.726-3.848,3.848,1.726,3.848,3.848,3.848ZM267.609,34.032c1.57,0,2.848-1.277,2.848-2.848s-1.277-2.848-2.848-2.848-2.848,1.278-2.848,2.848,1.278,2.848,2.848,2.848ZM267.609,4.836c1.294,0,2.348-1.053,2.348-2.348s-1.053-2.348-2.348-2.348-2.348,1.053-2.348,2.348,1.053,2.348,2.348,2.348ZM267.609,180.01c2.949,0,5.348-2.399,5.348-5.348s-2.399-5.348-5.348-5.348-5.348,2.399-5.348,5.348,2.399,5.348,5.348,5.348ZM267.609,150.814c2.673,0,4.848-2.175,4.848-4.848s-2.175-4.848-4.848-4.848-4.848,2.175-4.848,4.848,2.175,4.848,4.848,4.848ZM267.609,121.619c2.397,0,4.348-1.95,4.348-4.348s-1.95-4.348-4.348-4.348-4.348,1.951-4.348,4.348,1.951,4.348,4.348,4.348ZM296.304,618.445c7.36,0,13.348-5.987,13.348-13.348s-5.988-13.348-13.348-13.348-13.348,5.987-13.348,13.348,5.988,13.348,13.348,13.348ZM296.304,471.966c5.706,0,10.348-4.642,10.348-10.348s-4.642-10.348-10.348-10.348-10.348,4.642-10.348,10.348,4.642,10.348,10.348,10.348ZM296.304,442.771c5.43,0,9.848-4.418,9.848-9.848s-4.418-9.849-9.848-9.849-9.848,4.418-9.848,9.849,4.417,9.848,9.848,9.848ZM296.304,501.162c5.981,0,10.848-4.866,10.848-10.848s-4.867-10.848-10.848-10.848-10.848,4.866-10.848,10.848,4.866,10.848,10.848,10.848ZM296.304,559.553c6.533,0,11.848-5.314,11.848-11.848s-5.315-11.848-11.848-11.848-11.848,5.314-11.848,11.848,5.315,11.848,11.848,11.848ZM296.304,588.75c6.809,0,12.348-5.54,12.348-12.349s-5.54-12.348-12.348-12.348-12.348,5.539-12.348,12.348,5.539,12.349,12.348,12.349ZM296.304,530.358c6.257,0,11.348-5.091,11.348-11.348s-5.091-11.349-11.348-11.349-11.348,5.091-11.348,11.349,5.09,11.348,11.348,11.348ZM296.304,413.575c5.155,0,9.348-4.193,9.348-9.348s-4.193-9.348-9.348-9.348-9.348,4.193-9.348,9.348,4.193,9.348,9.348,9.348ZM296.304,296.792c4.052,0,7.348-3.296,7.348-7.348s-3.296-7.348-7.348-7.348-7.348,3.296-7.348,7.348,3.296,7.348,7.348,7.348ZM353.695,559.553c6.533,0,11.849-5.314,11.849-11.848s-5.315-11.848-11.849-11.848-11.848,5.314-11.848,11.848,5.314,11.848,11.848,11.848ZM353.695,588.75c6.809,0,12.349-5.54,12.349-12.349s-5.54-12.348-12.349-12.348-12.348,5.539-12.348,12.348,5.539,12.349,12.348,12.349ZM353.695,530.358c6.258,0,11.349-5.091,11.349-11.348s-5.091-11.349-11.349-11.349-11.348,5.091-11.348,11.349,5.091,11.348,11.348,11.348ZM325,530.358c6.257,0,11.348-5.091,11.348-11.348s-5.091-11.349-11.348-11.349-11.348,5.091-11.348,11.349,5.09,11.348,11.348,11.348ZM325,4.836c1.295,0,2.348-1.053,2.348-2.348s-1.053-2.348-2.348-2.348-2.348,1.053-2.348,2.348,1.053,2.348,2.348,2.348ZM353.695,618.445c7.36,0,13.349-5.987,13.349-13.348s-5.988-13.348-13.349-13.348-13.348,5.987-13.348,13.348,5.987,13.348,13.348,13.348ZM353.695,471.966c5.706,0,10.349-4.642,10.349-10.348s-4.643-10.348-10.349-10.348-10.348,4.642-10.348,10.348,4.642,10.348,10.348,10.348ZM325,34.032c1.57,0,2.848-1.277,2.848-2.848s-1.277-2.848-2.848-2.848-2.848,1.278-2.848,2.848,1.277,2.848,2.848,2.848ZM325,63.228c1.846,0,3.348-1.502,3.348-3.348s-1.502-3.348-3.348-3.348-3.348,1.502-3.348,3.348,1.502,3.348,3.348,3.348ZM181.522,209.206c3.225,0,5.848-2.623,5.848-5.848s-2.623-5.848-5.848-5.848-5.848,2.624-5.848,5.848,2.624,5.848,5.848,5.848ZM353.695,267.597c3.776,0,6.849-3.072,6.849-6.848s-3.072-6.848-6.849-6.848-6.848,3.072-6.848,6.848,3.072,6.848,6.848,6.848ZM353.695,325.988c4.328,0,7.849-3.521,7.849-7.848s-3.521-7.848-7.849-7.848-7.848,3.521-7.848,7.848,3.521,7.848,7.848,7.848ZM353.695,296.792c4.052,0,7.349-3.296,7.349-7.348s-3.297-7.348-7.349-7.348-7.348,3.296-7.348,7.348,3.296,7.348,7.348,7.348ZM353.695,413.575c5.155,0,9.349-4.193,9.349-9.348s-4.193-9.348-9.349-9.348-9.348,4.193-9.348,9.348,4.193,9.348,9.348,9.348ZM353.695,355.184c4.604,0,8.349-3.745,8.349-8.348s-3.745-8.349-8.349-8.349-8.348,3.745-8.348,8.349,3.745,8.348,8.348,8.348ZM353.695,384.379c4.879,0,8.849-3.969,8.849-8.848s-3.97-8.848-8.849-8.848-8.848,3.969-8.848,8.848,3.969,8.848,8.848,8.848ZM353.695,501.162c5.982,0,10.849-4.866,10.849-10.848s-4.866-10.848-10.849-10.848-10.848,4.866-10.848,10.848,4.866,10.848,10.848,10.848ZM325,384.379c4.879,0,8.848-3.969,8.848-8.848s-3.969-8.848-8.848-8.848-8.848,3.969-8.848,8.848,3.969,8.848,8.848,8.848ZM325,413.575c5.154,0,9.348-4.193,9.348-9.348s-4.193-9.348-9.348-9.348-9.348,4.193-9.348,9.348,4.193,9.348,9.348,9.348ZM325,355.184c4.603,0,8.348-3.745,8.348-8.348s-3.745-8.349-8.348-8.349-8.348,3.745-8.348,8.349,3.745,8.348,8.348,8.348ZM325,442.771c5.43,0,9.848-4.418,9.848-9.848s-4.418-9.849-9.848-9.849-9.848,4.418-9.848,9.849,4.417,9.848,9.848,9.848ZM325,501.162c5.981,0,10.848-4.866,10.848-10.848s-4.866-10.848-10.848-10.848-10.848,4.866-10.848,10.848,4.866,10.848,10.848,10.848ZM325,325.988c4.327,0,7.848-3.521,7.848-7.848s-3.521-7.848-7.848-7.848-7.848,3.521-7.848,7.848,3.521,7.848,7.848,7.848ZM325,471.966c5.706,0,10.348-4.642,10.348-10.348s-4.642-10.348-10.348-10.348-10.348,4.642-10.348,10.348,4.642,10.348,10.348,10.348ZM325,238.401c3.5,0,6.348-2.848,6.348-6.348s-2.848-6.348-6.348-6.348-6.348,2.848-6.348,6.348,2.848,6.348,6.348,6.348ZM325,296.792c4.052,0,7.348-3.296,7.348-7.348s-3.296-7.348-7.348-7.348-7.348,3.296-7.348,7.348,3.296,7.348,7.348,7.348ZM325,180.01c2.948,0,5.348-2.399,5.348-5.348s-2.399-5.348-5.348-5.348-5.348,2.399-5.348,5.348,2.399,5.348,5.348,5.348ZM325,121.619c2.397,0,4.348-1.95,4.348-4.348s-1.95-4.348-4.348-4.348-4.348,1.951-4.348,4.348,1.95,4.348,4.348,4.348ZM325,150.814c2.673,0,4.848-2.175,4.848-4.848s-2.175-4.848-4.848-4.848-4.848,2.175-4.848,4.848,2.175,4.848,4.848,4.848ZM325,267.597c3.775,0,6.848-3.072,6.848-6.848s-3.072-6.848-6.848-6.848-6.848,3.072-6.848,6.848,3.072,6.848,6.848,6.848ZM325,92.423c2.122,0,3.848-1.726,3.848-3.848s-1.726-3.848-3.848-3.848-3.848,1.726-3.848,3.848,1.726,3.848,3.848,3.848ZM325,209.206c3.225,0,5.848-2.623,5.848-5.848s-2.623-5.848-5.848-5.848-5.848,2.624-5.848,5.848,2.623,5.848,5.848,5.848ZM353.695,442.771c5.431,0,9.849-4.418,9.849-9.848s-4.418-9.849-9.849-9.849-9.848,4.418-9.848,9.849,4.418,9.848,9.848,9.848ZM210.217,267.597c3.776,0,6.848-3.072,6.848-6.848s-3.072-6.848-6.848-6.848-6.848,3.072-6.848,6.848,3.072,6.848,6.848,6.848ZM210.217,238.401c3.5,0,6.348-2.848,6.348-6.348s-2.848-6.348-6.348-6.348-6.348,2.848-6.348,6.348,2.848,6.348,6.348,6.348ZM210.217,150.814c2.673,0,4.848-2.175,4.848-4.848s-2.175-4.848-4.848-4.848-4.848,2.175-4.848,4.848,2.175,4.848,4.848,4.848ZM210.217,384.379c4.879,0,8.848-3.969,8.848-8.848s-3.969-8.848-8.848-8.848-8.848,3.969-8.848,8.848,3.969,8.848,8.848,8.848ZM210.217,209.206c3.225,0,5.848-2.623,5.848-5.848s-2.624-5.848-5.848-5.848-5.848,2.624-5.848,5.848,2.623,5.848,5.848,5.848ZM210.217,355.184c4.603,0,8.348-3.745,8.348-8.348s-3.745-8.349-8.348-8.349-8.348,3.745-8.348,8.349,3.745,8.348,8.348,8.348ZM210.217,296.792c4.052,0,7.348-3.296,7.348-7.348s-3.296-7.348-7.348-7.348-7.348,3.296-7.348,7.348,3.296,7.348,7.348,7.348ZM210.217,325.988c4.328,0,7.848-3.521,7.848-7.848s-3.521-7.848-7.848-7.848-7.848,3.521-7.848,7.848,3.521,7.848,7.848,7.848ZM210.217,180.01c2.949,0,5.348-2.399,5.348-5.348s-2.399-5.348-5.348-5.348-5.348,2.399-5.348,5.348,2.399,5.348,5.348,5.348ZM210.217,34.032c1.57,0,2.848-1.277,2.848-2.848s-1.278-2.848-2.848-2.848-2.848,1.278-2.848,2.848,1.277,2.848,2.848,2.848ZM238.913,618.445c7.36,0,13.348-5.987,13.348-13.348s-5.988-13.348-13.348-13.348-13.348,5.987-13.348,13.348,5.988,13.348,13.348,13.348ZM238.913,588.75c6.809,0,12.348-5.54,12.348-12.349s-5.539-12.348-12.348-12.348-12.348,5.539-12.348,12.348,5.539,12.349,12.348,12.349ZM210.217,121.619c2.397,0,4.348-1.95,4.348-4.348s-1.951-4.348-4.348-4.348-4.348,1.951-4.348,4.348,1.95,4.348,4.348,4.348ZM210.217,92.423c2.122,0,3.848-1.726,3.848-3.848s-1.726-3.848-3.848-3.848-3.848,1.726-3.848,3.848,1.726,3.848,3.848,3.848ZM210.217,63.228c1.846,0,3.348-1.502,3.348-3.348s-1.502-3.348-3.348-3.348-3.348,1.502-3.348,3.348,1.502,3.348,3.348,3.348ZM210.217,4.836c1.295,0,2.348-1.053,2.348-2.348s-1.053-2.348-2.348-2.348-2.348,1.053-2.348,2.348,1.053,2.348,2.348,2.348ZM210.217,530.358c6.257,0,11.348-5.091,11.348-11.348s-5.091-11.349-11.348-11.349-11.348,5.091-11.348,11.349,5.09,11.348,11.348,11.348ZM181.522,63.228c1.846,0,3.348-1.502,3.348-3.348s-1.502-3.348-3.348-3.348-3.348,1.502-3.348,3.348,1.502,3.348,3.348,3.348ZM181.522,92.423c2.122,0,3.848-1.726,3.848-3.848s-1.726-3.848-3.848-3.848-3.848,1.726-3.848,3.848,1.726,3.848,3.848,3.848ZM181.522,4.836c1.294,0,2.348-1.053,2.348-2.348s-1.053-2.348-2.348-2.348-2.348,1.053-2.348,2.348,1.053,2.348,2.348,2.348ZM210.217,413.575c5.155,0,9.348-4.193,9.348-9.348s-4.193-9.348-9.348-9.348-9.348,4.193-9.348,9.348,4.193,9.348,9.348,9.348ZM181.522,180.01c2.949,0,5.348-2.399,5.348-5.348s-2.399-5.348-5.348-5.348-5.348,2.399-5.348,5.348,2.399,5.348,5.348,5.348ZM181.522,121.619c2.397,0,4.348-1.95,4.348-4.348s-1.95-4.348-4.348-4.348-4.348,1.951-4.348,4.348,1.951,4.348,4.348,4.348ZM181.522,34.032c1.57,0,2.848-1.277,2.848-2.848s-1.277-2.848-2.848-2.848-2.848,1.278-2.848,2.848,1.278,2.848,2.848,2.848ZM181.522,150.814c2.673,0,4.848-2.175,4.848-4.848s-2.175-4.848-4.848-4.848-4.848,2.175-4.848,4.848,2.175,4.848,4.848,4.848ZM210.217,501.162c5.981,0,10.848-4.866,10.848-10.848s-4.867-10.848-10.848-10.848-10.848,4.866-10.848,10.848,4.866,10.848,10.848,10.848ZM210.217,471.966c5.706,0,10.348-4.642,10.348-10.348s-4.642-10.348-10.348-10.348-10.348,4.642-10.348,10.348,4.642,10.348,10.348,10.348ZM210.217,442.771c5.43,0,9.848-4.418,9.848-9.848s-4.418-9.849-9.848-9.849-9.848,4.418-9.848,9.849,4.417,9.848,9.848,9.848ZM210.217,588.75c6.809,0,12.348-5.54,12.348-12.349s-5.54-12.348-12.348-12.348-12.348,5.539-12.348,12.348,5.539,12.349,12.348,12.349ZM210.217,618.445c7.36,0,13.348-5.987,13.348-13.348s-5.988-13.348-13.348-13.348-13.348,5.987-13.348,13.348,5.988,13.348,13.348,13.348ZM210.217,559.553c6.533,0,11.848-5.314,11.848-11.848s-5.315-11.848-11.848-11.848-11.848,5.314-11.848,11.848,5.315,11.848,11.848,11.848ZM238.913,559.553c6.533,0,11.848-5.314,11.848-11.848s-5.315-11.848-11.848-11.848-11.848,5.314-11.848,11.848,5.315,11.848,11.848,11.848ZM238.913,150.814c2.673,0,4.848-2.175,4.848-4.848s-2.175-4.848-4.848-4.848-4.848,2.175-4.848,4.848,2.175,4.848,4.848,4.848ZM267.609,530.358c6.257,0,11.348-5.091,11.348-11.348s-5.09-11.349-11.348-11.349-11.348,5.091-11.348,11.349,5.091,11.348,11.348,11.348ZM267.609,588.75c6.809,0,12.348-5.54,12.348-12.349s-5.539-12.348-12.348-12.348-12.348,5.539-12.348,12.348,5.54,12.349,12.348,12.349ZM267.609,559.553c6.533,0,11.848-5.314,11.848-11.848s-5.315-11.848-11.848-11.848-11.848,5.314-11.848,11.848,5.315,11.848,11.848,11.848ZM267.609,501.162c5.981,0,10.848-4.866,10.848-10.848s-4.866-10.848-10.848-10.848-10.848,4.866-10.848,10.848,4.867,10.848,10.848,10.848ZM267.609,471.966c5.706,0,10.348-4.642,10.348-10.348s-4.642-10.348-10.348-10.348-10.348,4.642-10.348,10.348,4.642,10.348,10.348,10.348ZM238.913,4.836c1.294,0,2.348-1.053,2.348-2.348s-1.053-2.348-2.348-2.348-2.348,1.053-2.348,2.348,1.053,2.348,2.348,2.348ZM238.913,34.032c1.57,0,2.848-1.277,2.848-2.848s-1.277-2.848-2.848-2.848-2.848,1.278-2.848,2.848,1.277,2.848,2.848,2.848ZM267.609,618.445c7.36,0,13.348-5.987,13.348-13.348s-5.988-13.348-13.348-13.348-13.348,5.987-13.348,13.348,5.988,13.348,13.348,13.348ZM267.609,355.184c4.603,0,8.348-3.745,8.348-8.348s-3.745-8.349-8.348-8.349-8.348,3.745-8.348,8.349,3.745,8.348,8.348,8.348ZM267.609,325.988c4.327,0,7.848-3.521,7.848-7.848s-3.521-7.848-7.848-7.848-7.848,3.521-7.848,7.848,3.521,7.848,7.848,7.848ZM267.609,296.792c4.051,0,7.348-3.296,7.348-7.348s-3.296-7.348-7.348-7.348-7.348,3.296-7.348,7.348,3.296,7.348,7.348,7.348ZM267.609,267.597c3.776,0,6.848-3.072,6.848-6.848s-3.072-6.848-6.848-6.848-6.848,3.072-6.848,6.848,3.072,6.848,6.848,6.848ZM267.609,442.771c5.43,0,9.848-4.418,9.848-9.848s-4.417-9.849-9.848-9.849-9.848,4.418-9.848,9.849,4.418,9.848,9.848,9.848ZM267.609,413.575c5.154,0,9.348-4.193,9.348-9.348s-4.193-9.348-9.348-9.348-9.348,4.193-9.348,9.348,4.193,9.348,9.348,9.348ZM267.609,384.379c4.878,0,8.848-3.969,8.848-8.848s-3.969-8.848-8.848-8.848-8.848,3.969-8.848,8.848,3.969,8.848,8.848,8.848ZM238.913,63.228c1.846,0,3.348-1.502,3.348-3.348s-1.502-3.348-3.348-3.348-3.348,1.502-3.348,3.348,1.502,3.348,3.348,3.348ZM238.913,325.988c4.327,0,7.848-3.521,7.848-7.848s-3.521-7.848-7.848-7.848-7.848,3.521-7.848,7.848,3.521,7.848,7.848,7.848ZM238.913,384.379c4.878,0,8.848-3.969,8.848-8.848s-3.969-8.848-8.848-8.848-8.848,3.969-8.848,8.848,3.969,8.848,8.848,8.848ZM238.913,355.184c4.603,0,8.348-3.745,8.348-8.348s-3.745-8.349-8.348-8.349-8.348,3.745-8.348,8.349,3.745,8.348,8.348,8.348ZM238.913,530.358c6.257,0,11.348-5.091,11.348-11.348s-5.09-11.349-11.348-11.349-11.348,5.091-11.348,11.349,5.09,11.348,11.348,11.348ZM238.913,413.575c5.154,0,9.348-4.193,9.348-9.348s-4.193-9.348-9.348-9.348-9.348,4.193-9.348,9.348,4.193,9.348,9.348,9.348ZM238.913,442.771c5.43,0,9.848-4.418,9.848-9.848s-4.417-9.849-9.848-9.849-9.848,4.418-9.848,9.849,4.417,9.848,9.848,9.848ZM238.913,501.162c5.981,0,10.848-4.866,10.848-10.848s-4.866-10.848-10.848-10.848-10.848,4.866-10.848,10.848,4.866,10.848,10.848,10.848ZM238.913,471.966c5.706,0,10.348-4.642,10.348-10.348s-4.642-10.348-10.348-10.348-10.348,4.642-10.348,10.348,4.642,10.348,10.348,10.348ZM238.913,121.619c2.397,0,4.348-1.95,4.348-4.348s-1.95-4.348-4.348-4.348-4.348,1.951-4.348,4.348,1.95,4.348,4.348,4.348ZM267.609,238.401c3.5,0,6.348-2.848,6.348-6.348s-2.848-6.348-6.348-6.348-6.348,2.848-6.348,6.348,2.848,6.348,6.348,6.348ZM238.913,180.01c2.949,0,5.348-2.399,5.348-5.348s-2.399-5.348-5.348-5.348-5.348,2.399-5.348,5.348,2.399,5.348,5.348,5.348ZM238.913,92.423c2.122,0,3.848-1.726,3.848-3.848s-1.726-3.848-3.848-3.848-3.848,1.726-3.848,3.848,1.726,3.848,3.848,3.848ZM238.913,267.597c3.776,0,6.848-3.072,6.848-6.848s-3.072-6.848-6.848-6.848-6.848,3.072-6.848,6.848,3.072,6.848,6.848,6.848ZM238.913,296.792c4.051,0,7.348-3.296,7.348-7.348s-3.296-7.348-7.348-7.348-7.348,3.296-7.348,7.348,3.296,7.348,7.348,7.348ZM238.913,209.206c3.225,0,5.848-2.623,5.848-5.848s-2.623-5.848-5.848-5.848-5.848,2.624-5.848,5.848,2.623,5.848,5.848,5.848ZM238.913,238.401c3.5,0,6.348-2.848,6.348-6.348s-2.848-6.348-6.348-6.348-6.348,2.848-6.348,6.348,2.848,6.348,6.348,6.348Z"/></svg>